<?xml version="1.0" encoding="UTF-8" standalone="no"?>
<svg
   xmlns:dc="http://purl.org/dc/elements/1.1/"
   xmlns:cc="http://creativecommons.org/ns#"
   xmlns:rdf="http://www.w3.org/1999/02/22-rdf-syntax-ns#"
   xmlns:svg="http://www.w3.org/2000/svg"
   xmlns="http://www.w3.org/2000/svg"
   xmlns:sodipodi="http://sodipodi.sourceforge.net/DTD/sodipodi-0.dtd"
   xmlns:inkscape="http://www.inkscape.org/namespaces/inkscape"
   version="1.0"
   width="300.000000pt"
   height="413.000000pt"
   viewBox="0 0 300.000000 413.000000"
   preserveAspectRatio="xMidYMid meet"
   id="svg32"
   sodipodi:docname="battery-level-4.svg"
   inkscape:version="1.0.2 (e86c8708, 2021-01-15)">
  <defs
     id="defs36" />
  <sodipodi:namedview
     pagecolor="#252525"
     bordercolor="#666666"
     borderopacity="1"
     objecttolerance="10"
     gridtolerance="10"
     guidetolerance="10"
     inkscape:pageopacity="0"
     inkscape:pageshadow="2"
     inkscape:window-width="1305"
     inkscape:window-height="811"
     id="namedview34"
     showgrid="false"
     inkscape:zoom="1.0154169"
     inkscape:cx="181.29502"
     inkscape:cy="256.00967"
     inkscape:window-x="0"
     inkscape:window-y="25"
     inkscape:window-maximized="0"
     inkscape:current-layer="g30" />
  <metadata
     id="metadata10">
Created by potrace 1.10, written by Peter Selinger 2001-2011
<rdf:RDF>
  <cc:Work
     rdf:about="">
    <dc:format>image/svg+xml</dc:format>
    <dc:type
       rdf:resource="http://purl.org/dc/dcmitype/StillImage" />
    <dc:title></dc:title>
  </cc:Work>
</rdf:RDF>
</metadata>
  <g
     transform="translate(0.000000,413.000000) scale(0.050000,-0.050000)"
     fill="#ffffff"
     stroke="none"
     id="g30">
    <path
       d="M3040 8006 c0 -9 -38 -17 -85 -18 -178 -5 -517 -191 -561 -309 -12 -31 -38 -61 -58 -66 -39 -10 -55 -432 -18 -490 57 -90 92 -14 85 180 l-7 193 115 -58 c196 -99 401 -72 602 81 121 91 127 88 127 -49 0 -198 -76 -320 -270 -432 -123 -71 -143 -71 -370 -6 -205 59 -286 54 -276 -18 5 -34 21 -45 76 -50 39 -4 127 -24 197 -45 246 -75 392 -40 576 137 177 169 232 420 131 591 -24 42 -44 96 -44 122 0 68 -121 240 -175 247 -25 4 -45 -1 -45 -10z m4 -139 c264 -43 -6 -379 -304 -376 -336 3 -332 158 9 322 145 70 172 75 295 54z"
       id="path12" />
    <path
       style="fill:#ffffff;stroke:#00ffff"
       d="M 4032,6803 C 3804.715,6680.9395 3593.6692,6625.3123 3188.6325,6608.1566 3016.2802,6600.8565 2808.8021,6600.5225 2550,6605 l -480,8 -216,80 c -119,44 -228,93 -244,108 -15,16 -68,71 -117,123 l -89,93 153,55 c 84,30 237,85 340,123 103,37 217,73 254,79 113,18 116,106 3,106 -72,0 -610,-187 -764,-265 -131,-67 -224,-164 -194,-200 37,-45 42,-149 54,-1202 l 12,-1016 -126,101 c -681,552 -788,-307 -109,-886 197,-169 246,-72 52,104 -265,240 -472,662 -401,818 43,94 217,29 447,-165 l 135,-115 v -327 c 0,-179 -14,-518 -31,-752 -47,-657 -34,-1383 25,-1391 66,-10 73,51 58,463 -10,251 -5,495 16,793 53,765 57,1019 32,2234 -13,658 -21,1232 -17,1276 l 7,80 50,-57 c 175,-202 159,-191 430,-281 325,-109 454,-119 1170,-93 496,18 845.7857,124.6774 887.6067,116.0671 C 4111.606,6719.3257 3995,6656 4162,6749 c 354,200 427,395 203,544 -279,186 -1000,334 -981,202 6,-42 21,-46 216,-67 262,-27 623,-152 735,-254 109,-99 35,-189 -303,-371"
       id="path899" />
    <path
       style="fill:#00ff00;stroke:#00ffff"
       d="m 3984.007,6589.7496 c 0,0 211.993,-166.7496 214.993,-232.7496 2,-25 -290,-193 -379,-219 -68,-20 -278,-26 -860,-25 -840,1 -1015,22 -1226,148 l -77,45 106,107 c 98,99 65.5784,73.5676 35.5784,104.5676 -40,39 -60.5784,39.4324 -194.5784,-105.5676 -92,-100 -103,-140 -48,-170 33,-18 35,-35 18,-182 -11,-100 -9,-629 5,-1386 12,-673 21,-1540 20,-1927 -2,-478 4,-707 19,-716 15,-9 14,-25 -3,-54 -50,-81 226,-248 506,-307 77,-16 165,-48 195,-70 135,-99 913,-107 1103,-10 50,25 195,88 321,140 312,128 431,194 558,312 l 108,101 -14.0616,271 c -50,552 -88.5101,3164.2384 -43.5101,3784.2384 -75.3816,154.7066 -133.6667,18.2383 -133.6667,18.2383 C 4178.7616,6082.4767 4236,2721 4275,2385 c 30,-265 -40,-336 -527,-535 -153,-62 -315,-134 -359,-160 -159,-92 -891,-81 -1040,15 -44,28 -135,60 -206,72 -217,37 -491,191 -446,251 16,22 15,308 -8,2867 -7,696 -6,1265 1,1265 6,0 39,-14 72,-31 190,-98 761,-169 1031,-129 118,18 206,18 391,-2 404,-44 719,14 940,173 57,41 141.9333,86.9733 169.9333,93.9733 109,29 -41.1018,252.9529 -219.1018,360.9529"
       id="path14" />
    <path
       d="M4541 7062 c-13 -24 -26 -284 -34 -666 -12 -604 -2 -1010 77 -2966 12 -319 26 -778 29 -1020 4 -242 7 -447 7 -456 0 -9 20 -14 45 -10 66 9 88 308 58 776 -46 708 -53 1060 -19 1060 43 0 373 348 464 490 42 66 92 143 111 170 141 204 136 442 -12 559 -109 87 -389 31 -543 -107 l-80 -73 -12 286 c-18 418 -23 1044 -13 1545 9 397 6 440 -23 446 -18 4 -43 -12 -55 -34z m703 -2202 c50 -90 38 -215 -29 -315 -27 -41 -91 -138 -142 -215 -99 -149 -382 -467 -400 -449 -42 41 -16 804 30 852 90 97 219 172 324 187 152 23 175 17 217 -60z"
       id="path16" />
    <path
       d="M2300 5339 c-121 -66 -180 -124 -180 -179 0 -66 63 -66 123 0 30 33 95 78 144 99 103 44 126 71 92 112 -33 40 -53 37 -179 -32z"
       id="path18" />
    <path
       d="M3460 5290 c-41 -49 -9 -90 70 -90 79 0 200 -44 254 -93 42 -39 96 -22 96 29 0 103 -354 233 -420 154z"
       id="path20" />
    <path
       d="M2347 4950 c-13 -35 26 -90 63 -90 38 0 72 51 58 87 -16 41 -105 43 -121 3z"
       id="path22" />
    <path
       d="M3372 4948 c-17 -45 34 -98 78 -81 20 8 30 30 26 58 -8 56 -85 73 -104 23z"
       id="path24" />
    <path
       d="M2771 4645 c-7 -17 5 -50 26 -73 21 -23 53 -105 72 -182 48 -200 47 -199 92 -246 58 -63 143 -56 228 18 79 70 202 301 184 347 -16 42 -92 39 -105 -4 -51 -160 -186 -336 -226 -294 -10 10 -37 90 -61 177 -53 196 -54 195 207 188 206 -6 246 9 191 75 -37 45 -591 40 -608 -6z"
       id="path26" />
    <path
       d="M1148 2011 c-6 -15 7 -68 28 -117 41 -92 87 -131 428 -359 108 -71 149 -109 136 -125 -49 -60 29 -558 105 -670 240 -353 847 -48 881 443 4 52 11 57 79 57 74 0 618 73 675 90 25 8 30 -17 32 -145 11 -901 959 -666 1003 248 6 119 1 229 -11 264 -20 58 -17 64 47 104 38 23 69 59 69 78 0 71 -61 62 -186 -27 -170 -120 -251 -158 -494 -230 -115 -35 -268 -91 -340 -124 -240 -114 -806 -168 -1221 -117 -410 50 -610 142 -1043 478 -29 23 -63 73 -76 111 -24 73 -91 98 -112 41z m3267 -549 c-19 -311 -152 -573 -345 -676 -284 -153 -427 -26 -446 396 l-9 212 148 53 c81 29 219 75 307 103 88 27 196 71 240 96 106 61 118 39 105 -184z m-2430 -111 c155 -51 396 -91 557 -91 115 0 115 -2 22 -239 -68 -171 -168 -269 -318 -313 -237 -69 -345 33 -385 362 -33 274 -38 330 -30 330 5 0 74 -22 154 -49z"
       id="path28" />
  </g>
  <g
     inkscape:groupmode="layer"
     id="layer1"
     inkscape:label="fill"
     style="opacity:1">
    <path
       style="fill:#00ff00;fill-opacity:0.419608;stroke-width:0.509845"
       d="m 178.86211,441.43284 c -11.79577,-1.18322 -17.17591,-2.36848 -22.68811,-4.99827 -5.44999,-2.60011 -7.99437,-3.44284 -14.77474,-4.89364 -6.59295,-1.41069 -10.9845,-3.00438 -17.70262,-6.42425 -6.66167,-3.39113 -10.95886,-7.09867 -10.34409,-8.92472 0.75853,-2.25306 0.84953,-33.06629 0.28431,-96.26989 -0.31221,-34.91164 -0.71478,-89.60078 -0.89459,-121.53142 l -0.32694,-58.05571 1.23062,0.38179 c 0.67683,0.20999 2.26305,0.89836 3.52491,1.52972 13.11783,6.56327 49.08315,11.07001 69.084,8.65677 7.99751,-0.96496 15.14029,-0.9474 24.78351,0.0609 10.21365,1.06797 25.97604,1.0737 33.19741,0.0121 12.9344,-1.90151 21.56734,-5.16687 31.72786,-12.00087 2.51057,-1.68862 4.59033,-3.02121 4.62168,-2.96131 0.0313,0.0599 -0.13979,5.15637 -0.38032,11.3255 -1.15018,29.5007 1.99899,208.80419 4.20418,239.37222 1.0115,14.02122 0.51646,18.12484 -2.68861,22.2872 -3.9651,5.14938 -13.14793,10.25961 -34.02939,18.93728 -6.02892,2.50542 -14.17369,6.06255 -18.0995,7.90473 -7.61989,3.57562 -11.04115,4.51848 -19.57272,5.39399 -4.78143,0.49066 -26.84125,0.63077 -31.15685,0.19788 z m 30.0318,-165.33242 c 3.35273,-1.71044 5.52971,-3.96693 9.22478,-9.56173 3.519,-5.32822 6.47878,-11.57286 6.99607,-14.76056 0.39542,-2.43666 -0.88992,-3.74421 -3.6806,-3.74421 -2.37813,0 -3.24812,0.71593 -4.33689,3.56892 -3.29621,8.63735 -10.28433,18.35442 -13.19974,18.35442 -0.65654,0 -1.24161,-0.81118 -1.98363,-2.75018 -2.09379,-5.47141 -4.39159,-14.37781 -4.4168,-17.11977 -0.0378,-4.10776 0.20733,-4.17785 14.93568,-4.27123 12.97273,-0.0822 14.35475,-0.33132 14.35475,-2.58714 0,-1.71401 -1.46379,-3.19367 -3.82383,-3.86529 -5.27193,-1.50026 -32.1528,-1.08796 -36.89717,0.56594 -2.11102,0.7359 -2.11965,2.49058 -0.0285,5.788 2.25255,3.55188 3.34147,6.57066 5.86818,16.26808 1.2322,4.72911 2.72341,9.37998 3.31382,10.33528 1.14662,1.85527 3.52462,3.87764 5.58064,4.74605 1.762,0.74423 5.64997,0.27988 8.09324,-0.96658 z m -45.46696,-50.6795 c 1.63395,-1.57634 1.98125,-3.91062 0.79904,-5.37059 -1.41314,-1.74515 -5.04229,-2.05023 -6.90484,-0.58044 -0.77114,0.60852 -1.40207,1.56002 -1.40207,2.11442 0,1.62097 1.43023,3.9301 2.93802,4.74349 1.63503,0.88204 2.99536,0.61208 4.56985,-0.90688 z m 67.52666,0.35573 c 0.92893,-0.84067 1.24041,-3.36855 0.61567,-4.99659 -0.4648,-1.21124 -3.1672,-2.44902 -4.57528,-2.09562 -0.66729,0.16748 -1.58058,0.86512 -2.02953,1.55031 -2.31068,3.52653 2.89422,8.34275 5.98914,5.5419 z m 26.93447,-14.96141 c 0.59266,-0.59266 1.01969,-1.69948 1.01969,-2.64296 0,-3.38695 -7.84259,-8.83963 -15.55027,-10.81156 -9.01593,-2.30662 -14.02074,-1.1315 -14.02074,3.29204 0,2.22458 1.52925,3.08712 6.42765,3.62537 5.49723,0.60406 11.5349,2.75773 15.38186,5.48679 3.2534,2.30798 5.18346,2.60867 6.74181,1.05032 z m -110.60872,-1.96223 c 1.24666,-0.79882 2.72552,-1.97386 3.28635,-2.61122 1.52645,-1.73474 6.13287,-4.7102 10.58045,-6.83431 2.23365,-1.06677 4.32371,-2.45425 4.80616,-3.19055 0.80191,-1.22387 0.79817,-1.40597 -0.0616,-3.00253 -1.30736,-2.42763 -3.05858,-3.02753 -5.91018,-2.02464 -6.48029,2.27909 -16.32361,9.08698 -18.097,12.51633 -1.56548,3.02731 -0.46486,6.5993 2.03342,6.5993 0.60267,0 2.11577,-0.65357 3.36243,-1.45238 z"
       id="path47"
       transform="scale(0.74999999)" />
  </g>
</svg>
