<?xml version="1.0" encoding="UTF-8" standalone="no"?>
<svg
   xmlns:dc="http://purl.org/dc/elements/1.1/"
   xmlns:cc="http://creativecommons.org/ns#"
   xmlns:rdf="http://www.w3.org/1999/02/22-rdf-syntax-ns#"
   xmlns:svg="http://www.w3.org/2000/svg"
   xmlns="http://www.w3.org/2000/svg"
   xmlns:sodipodi="http://sodipodi.sourceforge.net/DTD/sodipodi-0.dtd"
   xmlns:inkscape="http://www.inkscape.org/namespaces/inkscape"
   version="1.0"
   width="900.000000pt"
   height="1197.000000pt"
   viewBox="0 0 900.000000 1197.000000"
   preserveAspectRatio="xMidYMid meet"
   id="svg34"
   sodipodi:docname="battery-level-0.svg"
   inkscape:version="1.0.2 (e86c8708, 2021-01-15)">
  <defs
     id="defs38" />
  <sodipodi:namedview
     pagecolor="#252531"
     bordercolor="#666666"
     borderopacity="1"
     objecttolerance="10"
     gridtolerance="10"
     guidetolerance="10"
     inkscape:pageopacity="0.46666667"
     inkscape:pageshadow="2"
     inkscape:window-width="1283"
     inkscape:window-height="811"
     id="namedview36"
     showgrid="false"
     inkscape:zoom="0.384383"
     inkscape:cx="264.96862"
     inkscape:cy="745.32057"
     inkscape:window-x="61"
     inkscape:window-y="25"
     inkscape:window-maximized="0"
     inkscape:current-layer="layer1" />
  <metadata
     id="metadata10">
Created by potrace 1.10, written by Peter Selinger 2001-2011
<rdf:RDF>
  <cc:Work
     rdf:about="">
    <dc:format>image/svg+xml</dc:format>
    <dc:type
       rdf:resource="http://purl.org/dc/dcmitype/StillImage" />
    <dc:title></dc:title>
  </cc:Work>
</rdf:RDF>
</metadata>
  <g
     transform="translate(0.000000,1197.000000) scale(0.100000,-0.100000)"
     fill="#ffffff"
     stroke="none"
     id="g32">
    <path
       d="M4522 11399 c-12 -5 -25 -15 -28 -24 -5 -12 -27 -15 -113 -15 -73 -1 -114 -5 -131 -15 -14 -8 -35 -14 -47 -15 -12 0 -34 -6 -50 -14 -15 -7 -44 -20 -63 -29 -47 -20 -122 -56 -140 -67 -8 -5 -22 -11 -30 -14 -8 -4 -28 -15 -45 -26 -16 -11 -37 -23 -45 -27 -32 -14 -137 -98 -182 -145 -51 -53 -76 -95 -87 -143 -6 -25 -13 -31 -46 -36 -60 -10 -75 -36 -75 -133 0 -44 7 -157 15 -251 8 -93 15 -197 15 -230 0 -50 4 -65 25 -88 30 -31 70 -35 101 -9 30 25 33 39 23 133 -19 181 -37 414 -33 421 8 12 32 9 41 -5 13 -20 95 -81 133 -98 54 -24 101 -40 145 -49 22 -4 66 -13 98 -20 58 -13 85 -10 232 20 41 8 112 33 143 49 9 5 35 18 57 28 92 42 191 118 275 211 27 30 48 28 56 -5 3 -16 10 -40 15 -54 15 -39 5 -265 -14 -324 -9 -27 -22 -67 -29 -88 -9 -25 -46 -72 -108 -135 -101 -104 -177 -165 -250 -202 -25 -12 -57 -29 -72 -36 -35 -19 -219 -19 -273 0 -22 7 -56 19 -75 26 -19 6 -51 16 -70 20 -19 4 -48 13 -65 18 -131 46 -291 47 -326 3 -24 -29 -24 -59 1 -91 18 -23 23 -25 103 -22 60 2 96 -2 122 -13 21 -8 47 -15 59 -15 12 0 26 -4 32 -9 5 -6 27 -14 49 -20 22 -5 54 -14 70 -19 112 -38 136 -42 233 -42 68 0 115 5 139 15 19 8 43 15 53 15 20 0 153 69 158 81 2 5 10 9 18 9 8 0 14 4 14 8 0 4 14 16 31 26 51 30 258 244 265 274 4 15 12 33 18 41 14 18 34 73 54 151 12 46 16 101 14 190 -3 182 -29 267 -102 329 l-40 34 0 77 c0 63 -4 85 -25 121 -13 24 -29 54 -34 65 -16 36 -130 152 -159 162 -15 5 -37 6 -50 1z m-43 -203 c20 -18 67 -21 76 -6 10 16 43 -7 62 -43 20 -37 42 -112 43 -144 0 -12 -12 -34 -27 -50 -16 -15 -34 -40 -42 -56 -15 -28 -132 -122 -198 -158 -100 -54 -134 -69 -153 -69 -9 0 -34 -7 -53 -15 -20 -8 -65 -15 -100 -15 -36 0 -84 7 -107 15 -23 8 -54 15 -69 15 -14 0 -35 7 -45 15 -11 8 -26 15 -33 15 -21 0 -120 67 -132 89 -16 29 8 78 64 130 42 39 122 98 156 115 8 3 28 15 44 25 43 28 109 61 122 61 6 0 16 6 22 14 6 8 22 16 34 19 12 3 47 15 77 27 30 12 73 26 95 30 57 12 144 4 164 -14z"
       id="path12" />
    <path
       d="M4993 10730 c-37 -34 -28 -100 15 -120 30 -13 225 -29 372 -30 52 0 111 -5 130 -11 19 -5 55 -14 80 -18 45 -9 88 -23 147 -48 18 -7 47 -20 65 -27 32 -14 76 -30 148 -55 19 -7 50 -17 69 -21 18 -5 38 -13 44 -19 6 -6 19 -11 28 -11 15 0 51 -15 99 -42 8 -4 26 -13 39 -18 78 -34 181 -144 181 -194 0 -29 -33 -87 -77 -133 -29 -31 -137 -115 -163 -126 -8 -4 -28 -16 -45 -27 -16 -11 -39 -24 -50 -30 -11 -6 -33 -19 -50 -29 -16 -11 -48 -29 -70 -41 -22 -12 -58 -34 -80 -49 -22 -15 -60 -37 -85 -49 -25 -13 -52 -27 -60 -31 -110 -62 -300 -113 -485 -131 -55 -6 -107 -13 -115 -16 -8 -3 -82 -10 -165 -14 -82 -5 -224 -14 -315 -20 -91 -6 -455 -12 -810 -13 -595 -2 -648 -1 -684 16 -21 9 -47 17 -57 17 -10 0 -33 6 -51 14 -45 19 -123 48 -228 86 -19 6 -51 16 -70 20 -112 27 -149 40 -225 78 -34 17 -105 81 -105 95 0 5 -13 26 -30 47 -16 21 -30 42 -30 48 0 16 -68 71 -115 93 -24 11 -46 27 -49 35 -5 14 0 18 74 46 14 5 38 16 53 24 16 8 36 14 45 14 9 0 26 7 36 15 11 8 29 15 41 15 12 0 30 7 41 15 10 8 28 15 39 15 11 0 29 6 40 14 11 7 31 16 45 19 26 5 75 22 125 42 45 19 96 36 134 45 18 5 38 13 44 19 6 6 19 11 28 11 10 0 30 6 46 14 91 44 158 67 228 77 98 14 132 28 146 60 27 66 -36 123 -110 100 -21 -6 -49 -11 -62 -11 -27 0 -110 -25 -152 -46 -16 -8 -35 -14 -42 -14 -7 0 -26 -6 -42 -14 -52 -26 -104 -46 -118 -46 -7 0 -26 -6 -42 -14 -33 -16 -85 -35 -132 -46 -18 -5 -38 -13 -44 -19 -6 -6 -20 -11 -32 -11 -12 0 -30 -7 -41 -15 -10 -8 -27 -15 -36 -15 -10 0 -32 -6 -50 -14 -18 -8 -53 -22 -78 -31 -183 -69 -318 -147 -413 -239 -73 -71 -84 -110 -41 -153 39 -39 43 -82 44 -558 1 -220 5 -476 11 -570 5 -93 14 -379 19 -635 5 -256 13 -519 19 -585 5 -66 11 -275 12 -464 l2 -344 -49 -45 c-27 -24 -58 -48 -69 -53 -11 -5 -60 -32 -110 -58 -49 -27 -110 -60 -135 -72 -100 -51 -209 -146 -273 -239 -17 -25 -63 -88 -102 -140 -147 -195 -214 -304 -228 -370 -3 -14 -10 -43 -16 -65 -41 -167 -52 -347 -26 -422 54 -153 108 -193 258 -193 90 0 155 14 220 46 16 8 35 14 42 14 7 0 26 6 42 14 15 8 46 21 68 29 65 25 69 26 100 47 17 11 44 26 60 34 39 20 100 55 152 89 24 15 48 27 54 27 12 0 10 -42 -10 -185 -6 -38 -11 -117 -11 -175 0 -58 -7 -172 -16 -255 -22 -220 -23 -926 0 -1045 18 -95 20 -233 6 -424 -10 -139 -7 -152 36 -181 26 -17 29 -17 60 0 17 9 37 28 43 41 6 14 13 118 17 242 4 183 3 233 -12 312 -15 82 -18 154 -17 515 1 251 6 454 13 505 6 47 15 177 20 290 5 113 15 259 21 325 15 159 14 1961 -1 2165 -6 80 -15 350 -20 600 -5 250 -14 527 -19 615 -6 88 -11 347 -11 575 -1 228 -5 438 -10 465 -28 150 -24 170 27 141 16 -9 35 -18 43 -22 15 -6 90 -96 90 -108 0 -22 114 -153 145 -167 11 -5 40 -21 64 -34 24 -14 50 -25 56 -25 7 0 26 -7 41 -15 16 -8 40 -15 54 -15 14 -1 36 -7 50 -15 14 -8 39 -15 55 -15 17 0 39 -7 49 -15 11 -8 29 -15 41 -15 12 0 30 -7 41 -15 10 -8 27 -15 36 -15 9 0 29 -6 45 -14 41 -20 92 -37 138 -46 22 -4 54 -13 70 -21 38 -17 1121 -17 1435 0 384 21 515 31 560 40 25 6 68 10 95 10 46 1 141 17 240 42 22 6 56 14 75 19 51 12 176 56 200 71 8 5 22 12 30 15 8 3 22 9 30 14 8 5 38 21 65 35 55 29 70 38 130 76 22 14 47 29 55 32 8 4 29 16 45 27 17 11 39 24 50 30 11 6 34 19 50 30 17 11 37 23 45 27 28 12 145 106 183 147 47 50 79 112 97 188 11 49 11 65 -3 113 -41 146 -178 250 -457 350 -88 31 -107 37 -139 45 -18 5 -38 13 -44 19 -6 6 -19 11 -28 11 -10 0 -32 8 -51 17 -18 9 -45 22 -60 30 -14 7 -35 13 -46 13 -11 0 -33 7 -48 15 -16 8 -41 15 -56 15 -15 0 -39 5 -55 11 -15 7 -120 15 -233 19 -113 5 -227 11 -255 15 -43 6 -53 4 -72 -15z m-2938 -4287 c-6 -24 -21 -542 -24 -866 -1 -106 -1 -108 -27 -117 -14 -6 -40 -21 -57 -34 -18 -13 -61 -37 -97 -54 -36 -17 -87 -45 -115 -61 -73 -43 -129 -71 -144 -71 -7 0 -25 -6 -39 -13 -15 -8 -43 -21 -62 -29 -19 -8 -52 -23 -73 -32 -26 -11 -66 -16 -127 -16 l-89 0 -21 46 c-15 36 -20 68 -20 140 0 51 5 105 11 121 6 15 14 57 19 93 4 36 14 81 21 100 18 48 87 153 191 292 49 64 88 122 88 128 0 5 4 10 9 10 5 0 12 8 15 18 9 29 106 126 156 158 25 16 65 39 90 51 50 26 66 34 95 51 11 7 29 17 40 22 11 6 32 18 46 28 109 73 126 79 114 35z"
       id="path14" />
    <path
       d="M6644 10112 c-44 -37 -47 -62 -55 -577 -4 -269 -9 -575 -11 -680 -5 -283 11 -1000 28 -1243 8 -117 14 -270 15 -340 0 -70 4 -165 9 -212 6 -47 14 -213 20 -370 6 -157 12 -298 15 -315 3 -16 9 -191 15 -389 6 -197 12 -362 15 -366 3 -4 9 -171 15 -371 6 -200 15 -409 20 -464 5 -55 9 -161 10 -235 0 -75 7 -190 15 -255 8 -66 15 -147 15 -180 0 -33 7 -109 16 -169 13 -91 15 -175 11 -525 -3 -229 -9 -433 -13 -453 -5 -33 -2 -41 24 -68 37 -37 71 -38 102 -5 22 23 25 38 31 148 14 232 10 794 -6 902 -8 55 -15 129 -15 165 0 36 -7 112 -15 170 -8 58 -15 164 -15 235 0 72 -5 182 -10 245 -6 63 -15 261 -20 440 -6 213 -14 352 -24 404 -22 114 -10 123 69 48 56 -53 129 -112 140 -112 4 0 24 -12 44 -27 61 -47 206 -123 233 -123 9 0 32 -7 51 -15 54 -22 335 -21 408 2 74 23 128 60 164 113 29 44 30 47 29 165 -1 86 -6 131 -18 159 -9 21 -16 50 -16 65 -1 14 -7 37 -15 51 -8 14 -14 35 -15 47 0 22 -17 67 -46 126 -8 16 -14 34 -14 42 0 7 -7 18 -15 25 -8 7 -15 19 -15 26 0 8 -20 43 -45 80 -25 36 -45 67 -45 70 0 11 -120 162 -171 215 -94 98 -229 187 -389 257 -19 8 -47 21 -62 29 -14 7 -33 13 -41 13 -9 0 -28 6 -44 14 -41 20 -120 39 -184 44 l-56 4 -6 126 c-4 70 -7 181 -8 247 0 66 -6 190 -13 275 -7 85 -14 281 -15 434 -1 154 -4 283 -7 287 -15 25 2 1679 18 1721 13 35 4 72 -24 98 -26 24 -56 25 -84 2z m275 -3358 c14 -8 35 -14 46 -14 11 0 29 -7 39 -15 11 -8 28 -15 37 -15 10 0 30 -7 46 -14 15 -8 35 -17 43 -20 8 -3 23 -10 33 -16 9 -5 25 -14 35 -19 9 -6 34 -19 55 -31 54 -29 141 -94 191 -143 40 -39 166 -199 166 -211 0 -3 13 -24 29 -48 16 -24 39 -62 51 -86 12 -23 26 -45 31 -48 5 -3 9 -14 9 -24 0 -10 6 -31 14 -47 8 -15 22 -54 30 -85 9 -32 22 -82 30 -110 51 -186 45 -244 -31 -278 -39 -17 -66 -20 -204 -20 -115 0 -167 4 -191 14 -18 8 -40 17 -48 20 -8 3 -22 10 -30 15 -8 5 -22 12 -30 15 -8 4 -28 15 -45 26 -16 11 -37 23 -45 27 -8 3 -31 19 -51 35 -20 15 -39 28 -42 28 -3 0 -16 9 -29 20 -12 11 -49 40 -80 65 -31 25 -78 72 -103 104 l-45 59 0 104 c0 57 -5 168 -11 248 -15 223 -27 474 -22 483 6 11 90 -2 122 -19z"
       id="path16" />
    <path
       d="M4973 7250 c-41 -4 -56 -11 -73 -32 -28 -37 -24 -85 11 -110 24 -18 32 -19 83 -8 96 20 243 1 354 -46 18 -8 39 -14 46 -14 8 0 19 -7 26 -15 7 -8 20 -15 29 -15 9 0 28 -13 41 -28 33 -37 66 -45 107 -25 30 14 33 19 33 62 0 40 -4 50 -33 74 -36 29 -104 67 -123 67 -6 0 -17 6 -23 14 -6 8 -24 16 -39 19 -15 2 -40 9 -57 15 -92 32 -140 41 -230 44 -55 2 -123 1 -152 -2z"
       id="path18" />
    <path
       d="M3681 7235 c-18 -8 -42 -15 -53 -15 -11 0 -32 -6 -46 -13 -15 -8 -45 -22 -67 -33 -93 -43 -164 -112 -165 -161 0 -66 89 -98 133 -47 36 43 71 74 83 74 6 0 17 7 24 15 7 8 21 15 32 15 10 0 33 7 50 16 23 12 60 16 148 16 l118 0 21 29 c27 37 27 70 -2 97 -21 20 -34 22 -133 22 -73 -1 -120 -6 -143 -15z"
       id="path20" />
    <path
       d="M3973 6958 c-18 -9 -29 -26 -63 -97 -16 -35 -37 -35 -67 -1 -25 28 -37 33 -77 34 -39 1 -50 -3 -66 -24 -28 -36 -25 -74 6 -99 15 -12 32 -21 39 -21 34 0 71 -79 44 -95 -5 -4 -15 -17 -20 -28 -15 -34 -36 -68 -48 -80 -15 -15 -13 -68 3 -89 43 -58 136 -29 136 43 0 31 50 23 62 -11 3 -9 17 -22 32 -29 23 -13 31 -13 61 2 21 10 37 26 41 42 6 26 -12 85 -26 85 -8 0 -41 51 -52 81 -4 10 7 37 28 69 19 28 34 55 34 60 0 4 7 13 15 20 18 15 29 71 20 100 -5 17 -62 53 -77 49 -2 0 -13 -5 -25 -11z"
       id="path22" />
    <path
       d="M4926 6895 c-46 -43 -25 -125 33 -125 18 0 41 -13 69 -40 46 -44 46 -57 2 -100 -14 -14 -42 -45 -62 -70 -19 -25 -47 -57 -61 -72 -32 -34 -41 -61 -33 -102 8 -41 58 -64 100 -45 14 7 26 15 26 18 0 4 10 17 23 31 12 14 42 53 66 87 65 94 86 95 97 5 8 -77 29 -104 79 -104 58 0 79 30 70 102 -4 30 -13 65 -21 77 -8 12 -14 29 -14 36 0 8 -9 22 -20 32 -28 26 -25 42 16 80 30 29 35 39 32 71 -2 30 -10 43 -36 60 -37 25 -62 22 -95 -12 -12 -13 -26 -24 -31 -24 -5 0 -28 19 -50 43 -78 82 -139 99 -190 52z"
       id="path24" />
    <path
       d="M4266 6060 c-50 -23 -85 -56 -130 -124 -43 -65 -46 -101 -10 -140 24 -25 32 -28 71 -23 51 5 69 24 76 78 3 20 15 47 28 60 39 39 147 27 251 -27 14 -8 44 -14 67 -14 37 0 42 3 60 38 19 37 19 40 2 68 -17 29 -56 48 -176 88 -67 22 -188 20 -239 -4z"
       id="path26" />
    <path
       d="M4625 4670 c-66 -5 -136 -13 -155 -19 -19 -6 -60 -11 -90 -11 -30 0 -80 -7 -110 -15 -30 -8 -74 -15 -98 -15 -23 0 -59 -7 -79 -15 -19 -8 -50 -15 -67 -15 -17 -1 -42 -7 -56 -15 -14 -8 -40 -14 -58 -15 -18 0 -49 -7 -69 -15 -19 -8 -49 -15 -65 -15 -16 0 -45 -7 -65 -15 -19 -8 -50 -15 -67 -15 -17 -1 -42 -7 -56 -15 -14 -8 -39 -14 -56 -15 -16 0 -39 -7 -50 -15 -10 -8 -31 -15 -45 -15 -14 0 -34 -7 -45 -15 -10 -8 -27 -15 -36 -15 -9 0 -29 -6 -45 -14 -15 -7 -46 -21 -68 -31 -22 -9 -53 -23 -68 -31 -16 -8 -35 -14 -42 -14 -7 0 -26 -6 -42 -14 -52 -26 -104 -46 -118 -46 -12 0 -51 -17 -95 -42 -8 -4 -22 -11 -30 -14 -90 -37 -169 -87 -244 -156 -17 -16 -38 -28 -47 -28 -24 0 -49 -33 -49 -66 0 -34 38 -74 70 -74 38 0 106 40 180 107 29 26 155 93 175 93 7 0 18 7 25 15 7 8 22 15 34 15 11 0 30 7 40 15 11 8 29 15 41 15 12 0 30 7 41 15 10 8 27 15 37 15 11 0 31 6 45 13 15 8 45 22 67 31 22 10 53 24 68 32 16 8 36 14 45 14 9 0 26 7 36 15 11 8 29 15 41 15 11 0 29 6 40 14 11 7 36 16 55 18 19 3 49 10 65 16 45 16 114 32 172 42 28 4 58 12 65 16 7 5 33 11 58 15 51 9 114 24 181 45 26 8 62 14 80 14 19 0 56 7 83 15 27 8 73 15 102 15 30 0 86 6 126 14 121 24 359 36 503 26 72 -5 182 -9 245 -10 72 0 133 -6 164 -15 27 -8 83 -15 125 -15 42 0 96 -5 121 -11 25 -6 72 -14 105 -19 58 -8 115 -24 145 -41 8 -5 22 -12 30 -15 45 -16 95 -45 183 -104 152 -100 220 -140 243 -140 13 0 114 -94 114 -105 -1 -18 -210 -135 -241 -135 -6 0 -23 -6 -37 -14 -15 -8 -47 -22 -72 -31 -25 -10 -72 -30 -105 -45 -89 -41 -253 -90 -302 -90 -17 0 -50 -7 -73 -15 -23 -8 -58 -15 -77 -15 -18 0 -50 -7 -70 -15 -19 -8 -48 -15 -62 -15 -15 0 -36 -7 -47 -15 -10 -8 -30 -15 -44 -15 -14 0 -34 -7 -44 -15 -17 -13 -93 -15 -500 -15 -265 1 -515 5 -556 11 -41 5 -268 14 -505 19 -236 6 -457 14 -490 19 -33 5 -98 10 -145 10 -47 1 -112 8 -145 16 -33 8 -72 14 -86 15 -15 0 -40 7 -55 15 -16 8 -38 15 -49 15 -11 1 -31 7 -45 15 -14 8 -35 14 -47 15 -13 0 -52 15 -88 33 -47 23 -67 39 -72 57 -8 29 -41 59 -66 60 -11 0 -32 -14 -48 -31 -26 -28 -29 -37 -29 -103 0 -39 7 -126 15 -191 8 -66 15 -158 15 -205 0 -47 7 -166 15 -264 8 -98 12 -182 9 -187 -3 -5 -3 -27 1 -49 5 -32 25 -58 118 -152 131 -132 204 -198 221 -198 7 0 17 -5 24 -12 17 -17 80 -38 147 -48 33 -5 87 -14 120 -19 33 -6 119 -11 190 -11 72 0 198 -7 280 -15 98 -10 267 -15 489 -15 271 0 357 -3 425 -16 72 -14 132 -16 366 -11 159 3 293 10 308 16 16 6 45 11 66 11 20 0 46 7 57 15 10 8 30 15 42 15 13 0 36 6 50 13 15 8 45 22 67 31 22 10 53 24 68 32 16 8 36 14 45 14 9 0 30 7 46 15 15 8 40 15 55 15 15 0 36 7 47 15 10 8 27 15 37 15 17 0 50 14 97 41 8 5 22 12 30 15 8 3 22 10 30 15 8 5 22 12 30 15 8 3 28 12 43 20 16 7 34 14 40 14 14 0 110 64 147 97 14 13 32 23 40 23 9 0 21 5 27 11 14 14 36 26 100 58 26 13 55 27 63 32 8 5 22 12 30 15 8 3 22 9 30 14 8 5 33 18 55 29 22 12 59 38 82 58 l42 38 9 110 c8 85 8 641 1 762 -1 12 9 42 22 67 28 56 18 87 -36 113 -24 11 -35 24 -35 38 0 29 -43 64 -146 115 -49 25 -93 51 -97 58 -4 6 -13 12 -18 12 -6 0 -36 19 -67 43 -32 23 -66 47 -77 54 -44 27 -162 83 -176 83 -8 0 -23 7 -33 15 -11 8 -31 15 -45 15 -14 1 -37 7 -51 15 -14 8 -43 15 -65 15 -22 0 -76 7 -120 15 -44 8 -106 14 -139 15 -32 0 -84 6 -115 14 -67 17 -572 27 -756 16z m1816 -1155 c-1 -192 -5 -353 -8 -358 -3 -4 -15 -12 -26 -18 -12 -5 -29 -13 -37 -18 -8 -5 -22 -12 -30 -15 -8 -3 -22 -10 -30 -14 -14 -9 -68 -33 -100 -46 -8 -3 -28 -15 -45 -25 -16 -11 -50 -30 -75 -42 -25 -12 -70 -41 -100 -64 -30 -23 -75 -51 -100 -62 -25 -12 -94 -44 -155 -73 -102 -49 -161 -70 -245 -89 -19 -4 -44 -12 -55 -18 -28 -14 -82 -37 -135 -58 -25 -9 -56 -22 -70 -27 -14 -6 -60 -19 -103 -29 -68 -16 -118 -19 -375 -19 -173 0 -314 5 -337 11 -23 6 -211 12 -444 15 -222 2 -440 8 -484 14 -43 5 -161 12 -260 16 -100 3 -207 12 -238 20 -31 8 -69 14 -83 14 -37 0 -127 61 -200 136 -123 125 -128 132 -142 199 -8 36 -18 170 -23 298 -6 135 -17 269 -27 320 -12 65 -14 91 -6 99 9 9 16 8 29 -3 25 -20 107 -59 125 -59 9 0 29 -7 44 -15 16 -8 37 -15 47 -15 10 0 28 -5 40 -12 22 -11 69 -19 242 -37 219 -23 428 -33 815 -41 223 -5 457 -14 520 -20 150 -15 906 -10 935 6 26 15 81 34 125 44 19 4 49 13 65 18 34 12 124 30 200 42 82 12 237 52 293 76 18 8 39 14 46 14 8 0 19 7 26 15 7 8 19 15 28 15 8 0 23 6 31 13 9 7 49 24 89 36 40 13 75 27 78 32 3 5 14 9 24 9 10 0 25 6 32 14 8 7 23 16 35 20 12 4 24 14 27 22 3 9 13 14 23 12 15 -3 16 -33 14 -353z"
       id="path28"
       style="fill:#ff0000" />
    <path
       d="M1933 2968 c-31 -15 -38 -63 -18 -118 9 -25 19 -56 22 -70 10 -41 53 -102 111 -157 31 -29 60 -53 65 -53 5 0 26 -12 46 -27 41 -32 69 -50 91 -60 8 -4 17 -9 20 -13 11 -13 178 -140 185 -140 4 0 24 -13 45 -30 21 -16 40 -30 43 -30 4 0 23 -12 44 -26 21 -14 47 -30 58 -35 11 -5 27 -13 35 -18 8 -5 26 -13 40 -19 88 -34 86 -33 66 -46 -57 -35 -66 -47 -66 -92 0 -25 5 -55 11 -66 7 -12 15 -89 20 -172 7 -148 19 -246 41 -336 6 -25 14 -63 18 -85 22 -115 107 -270 185 -337 11 -10 40 -27 65 -39 25 -12 57 -28 71 -35 60 -31 305 -27 399 6 142 50 214 93 301 179 47 47 131 162 149 203 5 13 14 31 20 41 5 9 15 25 20 35 6 9 13 24 16 32 3 8 11 29 18 45 18 41 36 94 46 130 4 17 12 41 18 55 22 55 36 140 24 152 -32 32 -14 38 121 38 119 0 243 12 397 41 30 6 88 14 127 19 40 5 90 14 110 19 21 6 60 11 86 11 55 0 167 25 210 46 16 8 38 14 49 14 17 0 19 -4 13 -22 -17 -53 -17 -265 -1 -345 9 -44 16 -97 16 -117 0 -20 7 -53 15 -73 8 -19 15 -44 15 -53 0 -10 7 -31 14 -47 8 -15 18 -35 21 -43 3 -8 14 -28 25 -45 11 -16 24 -39 29 -50 15 -33 100 -124 150 -158 98 -68 108 -71 223 -71 116 0 120 2 283 78 50 24 111 53 137 65 92 43 205 170 276 311 22 44 31 61 52 98 6 9 13 24 16 32 9 24 35 83 50 113 8 16 14 38 14 50 0 12 7 31 15 41 8 11 15 33 15 49 0 15 5 38 11 50 7 11 15 50 20 86 4 36 13 95 18 131 14 84 14 179 0 255 -5 33 -14 83 -18 112 -4 28 -12 58 -18 65 -5 7 -15 28 -21 45 l-11 33 76 50 c42 27 77 50 79 50 2 0 13 9 24 20 28 28 26 81 -3 108 -35 33 -71 28 -135 -22 -31 -23 -88 -65 -127 -91 -38 -26 -97 -67 -130 -89 -101 -70 -334 -174 -435 -195 -34 -7 -82 -21 -145 -43 -16 -5 -47 -13 -68 -18 -21 -4 -44 -13 -50 -19 -6 -6 -23 -11 -37 -11 -14 0 -35 -7 -46 -15 -10 -8 -27 -15 -36 -15 -9 0 -29 -6 -45 -14 -15 -8 -73 -36 -128 -61 -55 -26 -107 -51 -115 -56 -8 -5 -22 -12 -30 -15 -8 -3 -28 -11 -45 -18 -45 -20 -174 -46 -225 -46 -25 0 -72 -7 -105 -15 -33 -8 -78 -14 -101 -15 -22 0 -63 -7 -90 -15 -27 -8 -67 -15 -89 -15 -22 0 -69 -7 -105 -15 -92 -20 -561 -20 -685 0 -49 8 -117 15 -150 15 -33 1 -89 7 -125 15 -36 8 -86 14 -112 15 -26 0 -59 5 -75 11 -15 6 -50 15 -78 19 -113 19 -246 67 -425 154 -79 38 -90 45 -155 86 -62 39 -79 49 -95 57 -8 4 -19 11 -25 15 -60 50 -291 214 -315 225 -22 10 -124 88 -140 108 -16 19 -39 76 -47 115 -8 43 -26 71 -55 86 -31 16 -45 17 -75 2z m4582 -523 c26 -139 16 -342 -26 -510 -6 -22 -14 -56 -19 -75 -10 -40 -35 -112 -49 -138 -5 -9 -32 -63 -59 -119 -89 -182 -198 -323 -251 -323 -8 0 -30 -10 -91 -41 -182 -93 -230 -107 -306 -89 -30 7 -59 19 -65 27 -6 7 -17 13 -24 13 -22 0 -108 105 -141 172 -36 73 -64 162 -64 204 0 16 -7 54 -15 84 -12 40 -15 99 -14 220 1 91 -1 176 -5 190 -7 26 0 32 99 74 88 38 112 49 138 62 16 8 38 14 50 14 12 0 31 7 41 15 11 8 31 15 44 15 13 0 33 5 45 12 12 6 38 15 57 19 19 4 49 12 65 17 17 6 57 18 90 27 61 17 116 37 170 61 103 45 207 98 250 128 28 19 53 31 57 28 4 -4 14 -43 23 -87z m-3559 -378 c76 -37 121 -54 174 -67 19 -5 53 -13 75 -19 130 -32 178 -41 217 -41 23 -1 72 -7 108 -15 36 -8 94 -14 130 -15 36 0 94 -5 130 -11 36 -6 101 -11 145 -12 l80 -2 -2 -31 c-2 -17 -9 -44 -18 -60 -8 -16 -15 -38 -15 -49 -1 -11 -7 -31 -15 -45 -8 -14 -15 -36 -15 -50 0 -14 -7 -34 -15 -44 -8 -11 -15 -28 -15 -37 0 -15 -15 -51 -42 -99 -4 -8 -12 -24 -17 -35 -5 -11 -21 -37 -35 -58 -14 -21 -26 -41 -26 -45 0 -4 -8 -15 -18 -23 -11 -9 -25 -25 -33 -35 -8 -11 -41 -40 -74 -64 -95 -71 -172 -102 -292 -120 -261 -39 -413 106 -454 434 -5 43 -12 83 -15 88 -3 5 -10 80 -15 167 -4 87 -15 187 -24 222 -27 114 -24 117 81 66z"
       id="path30" />
  </g>
  <g
     inkscape:groupmode="layer"
     id="layer1"
     inkscape:label="fill"
     style="opacity:0.845638;mix-blend-mode:normal">
    <path
       style="fill:#ff5555;stroke-width:1.65845"
       d="m 590.76898,1255.5006 c -0.51268,-0.5126 -29.61607,-1.6773 -64.67419,-2.5882 -114.36914,-2.9714 -138.32932,-5.4378 -152.27483,-15.6747 -10.91865,-8.0151 -26.41755,-24.6969 -29.255,-31.4879 -1.52298,-3.645 -3.3329,-19.6604 -4.92679,-43.5955 -1.38569,-20.8087 -3.1478,-41.7409 -3.9158,-46.516 -0.768,-4.7752 -1.04554,-9.0329 -0.61675,-9.4617 0.42879,-0.4288 4.23366,0.9657 8.45527,3.0988 23.37101,11.8089 52.81609,16.3603 123.76723,19.1308 23.71585,0.9261 62.89676,2.4477 87.06869,3.3813 24.17192,0.9335 67.14631,1.6877 95.49862,1.6759 l 51.54966,-0.022 15.61762,-5.0228 c 8.58968,-2.7625 25.31954,-6.9459 37.17746,-9.2964 26.68125,-5.2888 45.67262,-10.7196 56.49561,-16.1557 4.55611,-2.2884 13.83504,-6.1632 20.61985,-8.6106 6.78481,-2.4474 15.14342,-6.2221 18.5747,-8.3882 3.43127,-2.166 6.62666,-3.9383 7.10086,-3.9383 0.4742,0 0.86218,20.4077 0.86218,45.3504 0,41.1373 -0.26963,45.5815 -2.90229,47.8387 -1.59626,1.3685 -11.59491,6.7209 -22.21921,11.8942 -10.62433,5.1732 -25.17723,13.258 -32.3398,17.9662 -14.90883,9.8 -46.83947,25.0777 -60.28873,28.8461 -5.01682,1.4057 -16.53911,5.5708 -25.6051,9.2557 -30.00425,12.1953 -27.4602,11.7819 -77.22428,12.5488 -25.08704,0.3866 -46.03229,0.2834 -46.54498,-0.2293 z"
       id="path191"
       transform="scale(0.75)" />
    <path
       style="fill:#ff5555;stroke-width:2.60157"
       d="m 530.32894,1252.1943 c -56.00439,-1.627 -124.22025,-5.9856 -137.17991,-8.7649 -9.36998,-2.0095 -16.93761,-5.9942 -25.20504,-13.2714 -22.30274,-19.6317 -22.8098,-21.0043 -27.43726,-74.2739 -3.71425,-42.757 -3.73201,-47.5905 -0.16955,-46.1346 40.6829,16.6259 85.87698,20.728 260.73631,23.6659 95.1169,1.5981 98.67085,1.479 118.37152,-3.9661 11.17076,-3.0875 33.0891,-8.5585 48.70743,-12.1579 15.61833,-3.5993 35.52036,-9.6199 44.22672,-13.3791 8.70637,-3.7591 22.0034,-9.5392 29.54894,-12.8447 l 13.71918,-6.0098 -0.71132,44.56 -0.71132,44.5601 -29.91808,16.4699 c -46.09561,25.3757 -68.72478,36.1482 -104.06287,49.5388 l -32.51965,12.3225 -65.03929,0.2394 c -35.77162,0.1316 -77.33173,-0.1178 -92.35581,-0.5542 z"
       id="path293"
       transform="scale(0.75)" />
  </g>
</svg>
