<?xml version="1.0" encoding="UTF-8" standalone="no"?>
<svg
   xmlns:dc="http://purl.org/dc/elements/1.1/"
   xmlns:cc="http://creativecommons.org/ns#"
   xmlns:rdf="http://www.w3.org/1999/02/22-rdf-syntax-ns#"
   xmlns:svg="http://www.w3.org/2000/svg"
   xmlns="http://www.w3.org/2000/svg"
   xmlns:sodipodi="http://sodipodi.sourceforge.net/DTD/sodipodi-0.dtd"
   xmlns:inkscape="http://www.inkscape.org/namespaces/inkscape"
   version="1.0"
   width="900.000000pt"
   height="1338.000000pt"
   viewBox="0 0 900.000000 1338.000000"
   preserveAspectRatio="xMidYMid meet"
   id="svg34"
   sodipodi:docname="battery-level-2.svg"
   inkscape:version="1.0.2 (e86c8708, 2021-01-15)">
  <defs
     id="defs38" />
  <sodipodi:namedview
     pagecolor="#2b2b3d"
     bordercolor="#666666"
     borderopacity="1"
     objecttolerance="10"
     gridtolerance="10"
     guidetolerance="10"
     inkscape:pageopacity="0"
     inkscape:pageshadow="2"
     inkscape:window-width="1289"
     inkscape:window-height="811"
     id="namedview36"
     showgrid="false"
     inkscape:zoom="0.2803775"
     inkscape:cx="234.5035"
     inkscape:cy="867.43959"
     inkscape:window-x="39"
     inkscape:window-y="25"
     inkscape:window-maximized="0"
     inkscape:current-layer="layer1" />
  <metadata
     id="metadata10">
Created by potrace 1.10, written by Peter Selinger 2001-2011
<rdf:RDF>
  <cc:Work
     rdf:about="">
    <dc:format>image/svg+xml</dc:format>
    <dc:type
       rdf:resource="http://purl.org/dc/dcmitype/StillImage" />
    <dc:title></dc:title>
  </cc:Work>
</rdf:RDF>
</metadata>
  <g
     transform="translate(0.000000,1338.000000) scale(0.100000,-0.100000)"
     fill="#ffffff"
     stroke="none"
     id="g32">
    <path
       d="M5039 12861 c-21 -28 -22 -29 -55 -15 -40 17 -172 19 -211 3 -15 -7 -46 -15 -68 -19 -46 -9 -98 -27 -137 -46 -14 -8 -35 -14 -46 -14 -11 0 -25 -7 -32 -15 -7 -8 -23 -15 -35 -15 -12 0 -28 -7 -35 -15 -7 -8 -17 -15 -23 -15 -9 0 -121 -54 -172 -84 -157 -90 -271 -209 -300 -313 -5 -19 -13 -23 -49 -23 -65 0 -77 -20 -88 -142 -15 -157 -6 -626 12 -662 19 -38 60 -52 110 -37 47 14 64 52 51 114 -6 23 -11 157 -12 297 -3 233 -1 255 14 258 9 2 17 -1 17 -6 0 -6 21 -32 48 -58 45 -46 178 -124 212 -124 8 -1 24 -7 34 -15 11 -8 32 -15 47 -15 14 0 43 -7 62 -15 44 -18 244 -21 297 -4 19 6 53 15 75 19 22 4 56 14 75 21 38 14 223 102 255 122 53 32 138 102 163 133 46 58 75 43 86 -46 4 -30 10 -75 13 -99 10 -74 -29 -277 -66 -349 -5 -9 -15 -31 -21 -49 -17 -46 -266 -278 -330 -306 -8 -4 -28 -16 -45 -27 -16 -11 -37 -23 -45 -26 -8 -3 -28 -12 -45 -19 -102 -44 -195 -55 -265 -30 -23 8 -55 15 -69 15 -15 0 -32 5 -38 11 -6 6 -26 14 -44 19 -19 5 -59 18 -89 30 -118 46 -136 52 -170 60 -19 4 -48 13 -63 19 -35 14 -202 15 -228 1 -33 -18 -50 -62 -37 -102 14 -46 57 -68 119 -61 67 7 154 -11 254 -53 61 -25 157 -60 245 -90 79 -26 312 -26 390 0 100 34 267 123 290 155 3 4 32 28 65 53 92 71 235 215 235 237 0 11 4 22 9 25 13 9 51 84 51 104 0 9 7 26 15 36 8 11 15 32 15 47 0 14 7 45 15 68 22 64 20 333 -4 401 -10 28 -23 56 -30 63 -6 6 -11 15 -11 20 0 15 -39 60 -63 72 -23 11 -25 27 -11 94 10 50 -15 148 -57 221 -5 8 -12 22 -16 30 -9 21 -60 86 -112 142 -39 43 -48 48 -87 48 -36 0 -47 -5 -65 -29z m-41 -194 c24 -21 80 -38 87 -26 4 5 18 9 33 9 22 0 30 -8 46 -43 10 -23 25 -55 32 -71 8 -16 14 -57 14 -90 0 -56 -2 -62 -30 -81 -16 -11 -37 -35 -47 -53 -20 -38 -155 -144 -213 -167 -8 -4 -22 -11 -30 -16 -8 -5 -22 -12 -30 -15 -8 -3 -28 -12 -45 -19 -111 -47 -218 -62 -343 -48 -83 10 -118 19 -187 48 -16 7 -37 16 -45 19 -49 21 -137 87 -151 113 -15 28 -1 65 44 113 33 36 110 100 120 100 4 0 23 11 43 25 21 14 85 48 143 76 58 28 119 57 134 65 16 8 36 14 46 14 9 0 26 7 37 15 10 8 29 15 42 15 13 0 33 5 45 12 52 29 224 32 255 5z"
       id="path12" />
    <path
       d="M5588 12085 c-43 -40 -48 -83 -13 -129 18 -24 129 -44 315 -55 80 -6 161 -14 180 -20 19 -6 50 -11 69 -11 61 0 184 -44 371 -134 52 -25 100 -46 107 -46 6 0 24 -6 40 -14 15 -8 48 -22 73 -31 227 -86 368 -179 436 -287 29 -46 30 -82 4 -133 -19 -38 -143 -165 -161 -165 -4 0 -27 -12 -51 -27 -66 -43 -75 -48 -193 -108 -60 -31 -117 -60 -125 -65 -8 -5 -22 -11 -30 -14 -8 -4 -42 -22 -75 -40 -33 -19 -80 -44 -105 -56 -25 -11 -58 -28 -73 -35 -16 -8 -35 -15 -44 -15 -8 0 -27 -6 -41 -14 -31 -15 -96 -34 -162 -45 -25 -4 -72 -13 -105 -19 -135 -26 -372 -37 -770 -37 -538 0 -1328 22 -1476 40 -63 8 -137 15 -165 15 -59 0 -206 27 -252 46 -18 8 -39 14 -47 14 -7 0 -26 6 -42 14 -15 8 -46 22 -68 32 -22 9 -47 21 -55 26 -8 4 -22 11 -30 14 -8 3 -28 12 -43 20 -16 7 -36 14 -46 14 -9 0 -22 5 -28 11 -6 6 -26 14 -44 19 -53 13 -171 55 -212 76 -16 8 -33 14 -38 14 -13 0 -116 78 -123 93 -4 7 -15 26 -25 42 -11 17 -32 52 -46 79 -38 70 -102 135 -157 159 -69 30 -63 51 22 82 25 9 60 20 79 25 18 5 38 13 44 19 6 6 21 11 34 11 12 0 37 6 55 14 51 21 99 37 138 46 19 4 50 13 68 19 17 6 47 16 65 22 17 6 48 15 67 19 19 4 49 13 65 18 17 6 57 18 90 27 33 10 76 23 95 30 82 29 107 37 135 45 17 5 44 13 60 19 71 24 159 41 213 41 51 0 62 4 85 28 35 37 36 80 1 121 -30 36 -73 40 -164 16 -30 -8 -71 -15 -90 -15 -19 0 -46 -7 -60 -15 -14 -8 -37 -14 -51 -15 -14 0 -34 -7 -45 -15 -10 -8 -30 -15 -45 -15 -14 0 -30 -5 -36 -11 -6 -6 -29 -15 -50 -19 -21 -5 -53 -13 -70 -19 -18 -6 -48 -16 -65 -22 -18 -6 -49 -15 -68 -19 -19 -4 -50 -13 -67 -19 -18 -6 -48 -16 -65 -22 -18 -6 -49 -15 -68 -19 -19 -4 -50 -13 -67 -19 -80 -27 -100 -33 -128 -41 -95 -26 -280 -106 -350 -151 -16 -10 -39 -23 -51 -28 -11 -5 -55 -41 -97 -81 -70 -66 -77 -76 -77 -110 0 -30 6 -44 30 -63 l30 -26 -1 -313 c0 -172 -4 -344 -9 -383 -5 -38 -14 -281 -19 -540 -6 -258 -13 -499 -16 -535 -5 -51 -19 -735 -29 -1357 0 -45 -3 -84 -6 -87 -3 -2 -50 -1 -105 3 -65 4 -133 3 -195 -5 -52 -7 -129 -13 -170 -14 -41 0 -95 -5 -120 -11 -25 -6 -67 -14 -95 -19 -53 -8 -103 -24 -148 -46 -16 -8 -37 -14 -47 -14 -9 0 -23 -7 -30 -15 -7 -8 -20 -15 -30 -15 -10 0 -23 -7 -30 -15 -7 -8 -16 -15 -21 -15 -22 0 -207 -126 -251 -171 -29 -29 -88 -127 -88 -146 -1 -10 -7 -29 -15 -43 -8 -14 -14 -41 -15 -60 0 -19 -7 -57 -15 -84 -19 -63 -19 -96 1 -160 30 -93 46 -115 119 -172 52 -39 214 -117 265 -127 14 -3 39 -10 55 -15 158 -55 395 -54 665 3 36 8 102 16 148 20 l82 5 0 -27 c0 -16 -7 -77 -15 -138 -8 -60 -15 -153 -15 -205 0 -52 -7 -140 -15 -195 -8 -55 -15 -131 -15 -170 0 -38 -7 -106 -15 -150 -8 -44 -14 -107 -15 -140 0 -33 -7 -95 -15 -138 -8 -43 -15 -104 -15 -135 0 -32 -7 -89 -15 -127 -8 -39 -15 -95 -15 -127 0 -31 -7 -92 -15 -135 -8 -43 -15 -107 -15 -143 -1 -36 -5 -85 -10 -110 -30 -141 -42 -601 -26 -945 7 -152 6 -192 -8 -259 -9 -43 -16 -118 -16 -167 0 -48 -5 -100 -12 -114 -9 -21 -8 -32 5 -59 34 -73 131 -66 164 12 31 72 43 435 28 847 -6 168 -4 258 5 335 7 58 16 159 20 225 8 117 19 226 41 390 6 44 15 125 20 180 4 55 13 120 18 145 6 25 10 72 11 105 0 33 7 95 15 138 8 43 15 106 15 140 0 34 7 100 15 147 8 47 15 119 15 160 0 41 7 125 15 185 8 61 15 157 15 215 0 58 5 137 10 175 6 39 15 192 20 340 5 149 14 329 20 400 5 72 9 171 10 221 0 69 4 95 15 104 20 16 19 50 -2 79 -15 22 -15 52 -4 375 6 193 16 578 21 856 12 653 28 1173 40 1330 17 215 23 538 11 645 -8 76 -7 101 2 107 17 11 21 10 47 -12 13 -11 27 -20 32 -20 12 0 67 -60 79 -85 5 -11 15 -29 21 -40 7 -11 32 -50 56 -87 39 -62 99 -123 150 -151 88 -50 220 -105 277 -115 17 -2 39 -11 50 -18 11 -8 27 -14 36 -14 10 0 32 -8 51 -17 18 -9 45 -22 60 -30 14 -7 33 -13 41 -13 8 0 20 -7 27 -15 7 -8 21 -15 30 -15 10 0 31 -6 47 -14 69 -35 201 -76 243 -76 19 0 51 -5 70 -10 19 -6 100 -15 180 -20 80 -5 186 -14 235 -20 50 -5 236 -10 415 -10 179 0 388 -5 465 -10 272 -18 492 -21 685 -10 107 6 263 15 345 20 83 5 166 13 185 19 19 6 51 11 72 11 20 0 49 5 65 11 15 6 48 14 73 19 43 8 59 13 155 47 85 31 170 72 370 178 66 35 127 67 135 70 8 4 22 11 30 16 8 5 38 20 65 34 68 35 78 42 165 106 93 70 149 130 185 200 26 49 29 64 29 156 0 82 -3 106 -17 121 -9 10 -17 25 -17 33 0 28 -165 188 -220 212 -8 4 -28 16 -45 27 -16 11 -37 23 -45 26 -8 3 -42 19 -75 34 -33 15 -80 35 -105 45 -25 9 -57 23 -72 31 -14 8 -32 14 -39 14 -13 0 -126 50 -159 71 -8 5 -22 12 -30 15 -15 5 -40 16 -113 48 -21 9 -45 16 -55 16 -9 0 -26 7 -36 15 -11 8 -32 15 -47 15 -14 0 -46 7 -69 15 -23 8 -61 15 -84 15 -22 0 -79 7 -126 15 -47 8 -125 15 -175 15 -52 1 -107 7 -130 15 -55 20 -66 19 -97 -10z m-3675 -4302 c4 -8 -7 -356 -21 -628 l-7 -150 -95 -1 c-52 -1 -108 -7 -123 -13 -16 -6 -45 -11 -65 -11 -21 0 -53 -5 -72 -11 -129 -40 -476 -22 -567 29 -12 6 -30 12 -41 12 -11 0 -25 7 -32 15 -7 8 -21 15 -31 15 -10 0 -20 4 -23 9 -3 5 -25 19 -47 30 -64 34 -78 57 -79 127 0 33 7 83 15 110 8 27 15 59 15 72 0 40 48 99 127 159 97 72 137 96 213 127 8 3 22 10 30 15 57 34 166 61 295 72 61 5 133 13 160 18 62 11 342 14 348 4z"
       id="path14" />
    <path
       d="M7484 11272 c-43 -6 -70 -61 -84 -172 -26 -195 -30 -245 -30 -350 0 -63 -7 -171 -15 -240 -8 -69 -15 -168 -15 -220 0 -52 -7 -153 -15 -225 -8 -71 -15 -182 -15 -245 0 -63 -5 -158 -11 -210 -22 -211 -48 -2537 -53 -4855 -2 -900 -7 -1353 -14 -1400 -6 -38 -11 -101 -12 -140 0 -38 -7 -108 -15 -155 -31 -174 -14 -220 76 -220 39 0 49 4 67 30 18 23 22 43 22 102 1 40 5 93 10 118 6 25 14 117 20 205 5 88 14 216 21 285 12 139 8 562 -10 910 -8 154 -9 345 -1 675 5 253 13 697 16 988 l7 527 34 0 c18 0 50 7 70 15 19 8 44 15 54 15 10 0 33 6 51 14 51 21 99 37 138 46 19 4 50 13 68 19 17 6 47 16 65 22 17 6 49 14 70 19 21 4 44 13 50 19 6 6 20 11 30 11 10 0 31 6 45 14 15 7 50 24 77 36 44 20 130 74 145 91 9 10 164 124 205 151 64 42 143 126 165 176 17 38 20 62 17 122 -5 88 -18 127 -71 198 -33 46 -149 143 -213 179 -47 27 -140 53 -186 53 -27 0 -92 7 -144 16 -77 13 -150 16 -384 12 l-289 -4 0 206 c1 113 5 324 10 470 6 146 12 418 15 605 3 187 11 387 16 444 6 57 14 203 19 323 5 120 12 222 15 228 3 5 10 96 15 202 6 106 14 229 20 273 5 44 9 141 9 215 1 84 6 157 15 191 28 108 30 151 7 180 -21 27 -49 37 -87 31z m684 -3557 c42 -8 92 -15 111 -15 20 0 50 -11 78 -30 24 -16 46 -30 48 -30 12 0 90 -73 123 -113 6 -9 12 -22 12 -29 0 -8 7 -23 15 -36 14 -19 14 -25 0 -53 -17 -33 -64 -77 -124 -119 -20 -14 -37 -28 -39 -32 -2 -5 -8 -8 -14 -8 -9 0 -128 -87 -138 -101 -10 -14 -112 -79 -125 -79 -7 0 -18 -7 -25 -15 -7 -8 -21 -15 -32 -15 -11 0 -32 -6 -46 -14 -36 -18 -90 -36 -133 -45 -19 -4 -42 -11 -49 -16 -7 -5 -30 -12 -49 -16 -20 -4 -52 -13 -71 -19 -19 -7 -51 -18 -70 -25 -19 -7 -51 -18 -70 -24 -92 -33 -130 -40 -138 -26 -4 8 -6 207 -4 444 l2 430 88 4 c171 8 571 -3 650 -18z"
       id="path16" />
    <path
       d="M3720 7971 c-36 -4 -72 -11 -80 -16 -8 -5 -32 -12 -55 -16 -59 -10 -129 -36 -218 -80 -88 -43 -99 -51 -148 -99 -43 -42 -49 -53 -49 -88 0 -35 5 -45 33 -66 50 -38 78 -34 125 19 22 25 44 45 50 45 5 0 15 7 22 15 7 8 20 15 30 15 10 0 23 7 30 15 7 8 22 15 34 15 11 0 30 7 40 15 11 8 30 15 43 15 13 0 36 6 51 14 15 7 63 16 106 20 95 9 142 26 157 60 14 29 5 89 -16 106 -19 16 -75 20 -155 11z"
       id="path18" />
    <path
       d="M5623 7862 c-35 -27 -54 -72 -41 -96 23 -45 51 -66 87 -66 20 0 52 -5 71 -11 19 -5 58 -14 85 -19 62 -10 98 -23 201 -73 88 -42 109 -43 152 -4 15 14 22 32 22 59 0 45 -17 65 -75 92 -22 11 -48 23 -57 27 -29 15 -101 40 -138 49 -279 69 -274 68 -307 42z"
       id="path20" />
    <path
       d="M3732 7430 c-30 -40 -28 -69 9 -113 29 -35 34 -37 88 -37 48 0 61 4 81 25 19 21 22 31 16 70 -8 65 -34 84 -112 85 -55 0 -62 -2 -82 -30z"
       id="path22" />
    <path
       d="m 4305,7389 c -22,-5 -80,-14 -130,-19 -79,-8 -155,-27 -186,-46 -6,-4 -6,-11 2,-20 6,-7 9,-21 5,-29 -10,-26 -121,-72 -190,-80 -79,-8 -108,4 -104,43 3,24 -1,27 -31,30 -19,2 -44,-1 -55,-6 -33,-14 -88,-33 -125,-42 -18,-5 -38,-13 -44,-19 -6,-6 -20,-11 -30,-11 -10,0 -33,-6 -50,-13 -57,-24 -101,-39 -146,-48 -24,-5 -49,-13 -55,-18 -6,-5 -27,-12 -46,-16 -19,-4 -39,-11 -45,-15 -5,-4 -23,-10 -40,-13 -43,-8 -191,-61 -250,-90 -27,-13 -61,-29 -75,-35 -54,-24 -147,-82 -189,-117 -46,-38 -64,-60 -83,-102 -10,-24 -23,-43 -28,-43 -4,0 -17,-15 -28,-32 -17,-29 -20,-52 -21,-178 0,-80 -7,-190 -16,-245 -8,-55 -15,-138 -15,-185 0,-47 -4,-100 -9,-118 -30,-103 -55,-1019 -39,-1412 19,-462 21,-587 9,-635 -6,-28 -16,-99 -22,-160 -10,-92 -15,-206 -30,-675 -3,-83 139,-279 256,-355 60,-39 147,-73 215,-85 115,-21 197,-38 220,-47 51,-21 106,-37 150,-44 25,-4 65,-12 90,-18 25,-6 75,-10 112,-11 37,0 79,-5 95,-12 18,-8 131,-14 318,-18 284,-7 405,-16 575,-46 152,-26 281,-18 455,28 22,6 121,14 220,19 283,12 392,28 510,78 55,24 114,48 130,55 17,7 46,20 65,29 19,9 47,19 63,23 15,3 30,10 33,15 3,5 17,9 32,9 15,1 38,7 52,15 14,8 42,14 63,15 21,0 54,7 74,15 19,8 50,15 67,15 17,1 42,7 56,15 14,8 33,14 42,15 10,0 47,13 81,30 35,16 71,30 80,30 9,0 18,4 21,9 4,5 27,20 54,32 26,13 66,36 88,51 23,15 45,28 50,28 4,0 15,6 23,13 9,8 57,31 106,51 50,21 94,42 99,47 6,5 17,9 26,9 20,0 163,92 209,134 68,63 70,107 6,178 l -35,38 1,240 c 0,146 -4,262 -12,299 -12,64 -8,220 10,416 7,76 7,165 0,285 -20,348 -21,411 -10,503 7,53 13,298 16,577 2,282 8,502 14,525 6,22 11,60 11,85 0,25 -15.8478,52.7174 -5.8478,72.7174 l 6.576,59.8478 L 6974,6515 c -19,38 -38,72 -44,75 -5,3 -8,32 -7,64 2,53 0,60 -28,83 -16,13 -39,29 -50,34 -35,17 -66,36 -78,48 -6,6 -17,11 -24,11 -7,0 -32,14 -55,30 -22,17 -47,30 -54,30 -7,0 -14,4 -16,8 -1,4 -21,19 -43,32 -36,22 -141,86 -190,118 -11,6 -27,15 -35,18 -8,3 -41,19 -73,35 -31,16 -66,29 -76,29 -11,0 -32,6 -48,14 -39,19 -93,37 -128,43 -16,3 -34,9 -40,13 -17,12 -62,20 -79,14 -20,-8 -20,-28 -1,-44 24,-20 13,-33 -36,-44 -24,-6 -44,-17 -44,-24 0,-12 106,-62 131,-62 7,0 25,-7 40,-15 16,-8 38,-15 49,-15 11,0 29,-7 39,-15 11,-8 29,-15 40,-15 12,0 30,-7 40,-15 11,-8 30,-15 42,-15 13,0 26,-4 29,-10 3,-5 30,-22 58,-36 29,-14 86,-48 127,-75 41,-27 84,-54 95,-59 11,-6 34,-19 50,-30 17,-11 54,-31 82,-45 29,-15 55,-30 58,-36 4,-5 14,-9 23,-9 9,0 34,-15 55,-33 33,-27 38,-36 32,-60 -4,-15 -26,-41 -49,-59 -22,-17 -70,-59 -106,-93 -40,-38 -92,-74 -135,-95 -38,-18 -83,-43 -100,-54 -120,-85 -316,-140 -540,-150 -383,-18 -882,6 -1105,54 -25,5 -70,9 -100,10 -30,0 -71,5 -90,11 -44,13 -193,25 -470,38 -118,6 -240,15 -270,20 -30,6 -84,13 -120,16 -59,5 -114,18 -210,48 -19,6 -55,14 -80,18 -25,4 -65,12 -90,18 -25,6 -70,10 -100,11 -30,0 -72,5 -92,11 -21,5 -75,14 -120,19 -117,13 -217,39 -273,72 -39,23 -155,78 -163,78 -5,0 -23,7 -40,16 -50,24 -42,51 33,122 36,33 76,67 89,74 47,25 111,56 151,73 22,10 60,26 85,37 64,28 78,33 145,53 33,9 76,23 95,30 19,7 62,20 95,30 33,9 76,23 95,30 86,30 107,37 138,45 18,4 38,12 45,18 7,5 23,12 37,15 27,5 79,23 120,40 27,12 106,32 185,48 28,5 69,14 93,19 23,6 71,10 105,10 35,0 88,7 118,14 90,24 351,34 614,25 132,-5 263,-13 290,-19 28,-6 109,-15 180,-20 133,-10 300,-32 345,-45 24,-7 24,-7 -6,21 -17,16 -39,39 -49,52 -18,22 -18,23 3,38 12,8 22,21 22,28 0,23 -74,48 -170,56 -52,5 -102,11 -110,14 -8,3 -80,11 -160,16 -80,6 -181,15 -225,20 -104,11 -568,10 -620,-1 z M 2443.908,6489.5132 c 10,-23 -6.908,-93.5132 12.092,-100.5132 19,-6 105.3684,13.3684 105.3684,1.3684 0,-15 31.6316,20.6316 3.6316,21.6316 -45,2 -146,-14 -109,-23 30.4868,53.9473 125,-11 132,-21 7,-10 17,-18 23,-18 5,0 28,-12 52,-27 23,-14 78,-39 122,-55 76,-28 113,-35 320,-57 49,-6 96,-14 105,-17 8,-4 60,-13 115,-20 55,-7 127,-20 160,-29 33,-9 87,-23 120,-30 33,-8 69,-16 80,-19 29,-9 257,-25 490,-36 110,-5 227,-14 260,-20 33,-6 101,-15 150,-21 50,-6 142,-16 205,-23 63,-8 122,-16 130,-20 18,-7 227,-25 435,-36 176,-9 557,-3 599,11 16,5 52,9 80,9 28,1 69,5 91,10 22,5 63,14 90,20 85,18 187,62 280,121 22,14 64,35 93,48 64,27 100,55 165,130 15,17 25,36 22,41 -3,6 -1,10 4,10 6,0 11,7 11,15 0,21 -1,20 -50,-25 -24,-22 -47,-40 -52,-40 -19,0 -6,38 17,50 13,7 36,30 51,52 15,21 37,41 49,44 12,3 29,21 38,40 21,44 -239.3262,-201.3371 -219.3262,-247.3371 12,-30 286.3262,200.3371 277.3262,175.3371 -6,-17 -19.2826,43.9674 -19.2826,27.9674 0,-35 -59.7174,-2.9674 -76.7174,4.0326 0,0 9,-188 0,-252 -4,-27 -11,-62 -16,-79 -6,-23 -17,-1048 -21,-2035 0,-14 3,-178 7,-365 7,-327 8,-342 31,-390 21,-46 22,-51 7,-67 -9,-10 -20,-18 -25,-18 -5,0 -30,-9 -56,-21 -26,-11 -58,-25 -72,-31 -14,-5 -38,-16 -55,-24 -16,-7 -53,-22 -80,-33 -28,-10 -66,-28 -85,-40 -19,-12 -47,-26 -62,-32 -16,-6 -28,-14 -28,-19 0,-4 -8,-10 -17,-14 -10,-3 -25,-10 -33,-16 -14,-9 -147,-70 -195,-89 -40,-16 -132,-40 -210,-56 -44,-9 -101,-22 -126,-30 -26,-8 -53,-15 -60,-15 -8,0 -26,-6 -40,-14 -15,-7 -54,-23 -88,-35 -34,-12 -69,-25 -79,-31 -9,-5 -33,-16 -52,-24 -19,-8 -57,-24 -85,-36 -27,-11 -58,-25 -67,-30 -10,-6 -53,-10 -96,-10 -43,0 -104,-7 -135,-15 -38,-10 -108,-15 -205,-15 -101,-1 -159,-5 -187,-15 -22,-8 -67,-17 -100,-21 -33,-3 -75,-10 -92,-16 -23,-6 -43,-6 -65,1 -18,6 -87,15 -153,20 -66,5 -142,14 -170,21 -29,6 -147,11 -280,11 -126,0 -253,5 -280,10 -28,5 -100,14 -160,19 -140,11 -267,30 -280,41 -6,4 -30,11 -53,15 -23,4 -45,11 -48,15 -3,5 -14,9 -24,9 -11,0 -41,7 -67,16 -26,10 -76,18 -109,19 -93,4 -227,73 -307,160 -33,36 -97,141 -97,160 0,7 7,26 15,41 12,23 14,50 10,129 -6,105 8,417 25,545 5,41 9,210 7,375 -5,698 1,1509 12,1564 6,31 16,121 21,201 5,80 14,195 20,255 11,127 3,201 -23,199 -9,-1 -18,6 -21,15 -13,47 -7,-32 0,0 5,32 0,-22.842 26,-22.842 24,0 -50.092,153.3552 -38.092,123.3552 z M 3561,6180 c -66.3642,29.1732 1.1669,-18.0545 7.4868,-18.6316 48.0965,42.6527 3.0158,18.7257 -7.4868,18.6316 z m 2964,10 c -3,-5 -13,-10 -21,-10 -8,0 -12,5 -9,10 3,6 13,10 21,10 8,0 12,-4 9,-10 z M 2377,4783 c -2,-16 -4,-5 -4,22 0,28 2,40 4,28 2,-13 2,-35 0,-50 z m 0,-1090 c -3,-10 -5,-2 -5,17 0,19 2,27 5,18 2,-10 2,-26 0,-35 z m 4503,-325 c 0,-5 9,-21 20,-35 11,-14 -103.9583,-138.5862 -103.9583,-151.5862 0,-26 78.9583,18.5862 57.9583,18.5862 -21,0 -17,39 6,58 18,15 87.3908,-3.6466 78.3908,26.3534 -13,45 -81.3908,108.6466 -68.3908,100.6466 6,-3 10,-11 10,-17 z M 2380,2958 c 0,-19 -6.2744,56.9397 -14.2744,68.9397 -13,19 -8.7256,-46.9397 4.2744,-46.9397 6,0 10,-10 10,-22 z m 160,-168 c 0,-13 -11,-13 -30,0 -12,8 -40.921,-24.1954 -21.921,-24.1954 12,0 51.921,30.1954 51.921,24.1954 z m 3180,-50 c 0,-5 -15,-10 -32,-10 -25,0 -29,3 -18,10 20,13 50,13 50,0 z"
       id="path24"
       style="fill:#ffff00"
       sodipodi:nodetypes="ccccccccccssccssccccccscccscccccccccsccccccccscscscccsccscccscccsccccccccccscccccccsscscccscsccccccsscscscsccsccccsccccccccccccccssccscsccccccsccccccccsccccccccscscccccsccssccccsscccsccccccscccccsscsccscccscccccccsccccscscccccscscsccsccccccscscccscscccscccccsccccscccccscsccscccsccsssscccsscssscsssscs" />
    <path
       d="M5675 7330 c-25 -36 -26 -44 -20 -99 8 -66 29 -94 80 -105 27 -6 36 -1 68 30 34 35 37 42 37 96 0 84 -26 118 -91 118 -43 0 -48 -3 -74 -40z"
       id="path26" />
    <path
       d="M4451 6719 c-19 -16 -24 -30 -24 -65 0 -38 4 -49 29 -69 25 -21 40 -24 104 -25 41 0 102 -7 135 -15 33 -8 83 -15 110 -15 28 0 86 -7 130 -15 44 -8 126 -14 182 -15 l103 0 26 41 c25 41 26 42 8 74 -30 55 -57 65 -191 65 -65 1 -147 7 -183 15 -36 8 -87 15 -115 15 -27 0 -79 7 -115 15 -95 21 -170 19 -199 -6z"
       id="path28" />
    <path
       d="M1565 3238 c-11 -6 -25 -19 -32 -27 -17 -22 -15 -90 2 -121 8 -14 14 -35 15 -48 0 -38 61 -151 104 -194 47 -46 182 -151 209 -161 9 -3 17 -11 17 -17 0 -5 7 -10 15 -10 8 0 15 -3 15 -7 0 -5 28 -30 62 -58 34 -27 70 -57 79 -66 23 -23 251 -194 269 -202 8 -4 29 -16 45 -27 44 -29 112 -60 129 -60 30 0 16 -29 -26 -52 -51 -28 -65 -68 -49 -134 6 -24 11 -73 11 -111 0 -107 20 -411 31 -483 6 -36 14 -90 19 -121 4 -30 12 -65 19 -77 6 -11 11 -30 11 -42 0 -12 6 -34 14 -48 7 -15 24 -49 37 -75 44 -89 52 -101 99 -147 46 -47 60 -56 142 -96 98 -48 142 -56 287 -56 102 1 148 5 176 16 21 9 46 16 56 16 10 0 35 7 56 16 94 40 109 47 123 55 8 5 22 12 30 16 28 12 125 91 166 135 43 45 126 153 137 178 4 8 16 29 27 45 32 50 103 199 134 283 77 204 78 210 60 248 -9 19 -14 37 -11 40 3 4 60 1 126 -6 70 -8 157 -10 208 -6 266 19 342 27 383 35 25 6 77 10 115 11 39 0 115 7 170 15 55 8 123 15 150 15 28 0 68 9 90 20 73 35 93 22 68 -45 -24 -62 -29 -347 -9 -456 9 -47 16 -101 16 -120 0 -57 58 -213 113 -304 17 -28 67 -95 92 -123 24 -28 130 -112 141 -112 4 0 15 -6 23 -13 9 -8 50 -22 92 -31 64 -15 85 -16 135 -6 32 7 78 15 102 20 24 4 48 12 54 18 7 7 21 12 33 12 12 0 30 7 41 15 10 8 26 15 35 15 9 0 22 7 29 15 7 8 21 15 31 15 17 0 51 13 129 48 42 20 105 66 143 107 46 48 97 111 97 120 0 4 12 24 28 44 30 40 47 67 62 96 6 11 19 34 30 50 31 49 120 229 120 245 0 8 7 24 15 34 8 11 15 28 15 37 0 10 6 30 14 46 16 32 33 95 46 168 5 28 14 68 21 90 7 26 12 120 12 265 0 215 -1 228 -25 290 -13 36 -23 72 -21 80 2 8 22 23 44 34 22 10 71 38 109 63 72 47 89 76 75 125 -9 30 -54 67 -82 68 -12 0 -70 -33 -130 -72 -113 -76 -135 -90 -168 -108 -11 -6 -33 -19 -50 -30 -16 -11 -39 -24 -50 -30 -11 -6 -33 -19 -50 -30 -16 -11 -37 -23 -45 -26 -30 -12 -86 -37 -113 -50 -16 -8 -35 -14 -42 -14 -7 0 -26 -6 -42 -14 -39 -19 -91 -36 -141 -47 -23 -5 -51 -13 -61 -19 -11 -5 -34 -10 -51 -10 -17 0 -47 -7 -67 -15 -19 -8 -47 -15 -62 -15 -14 0 -46 -6 -71 -14 -25 -8 -72 -22 -105 -31 -33 -9 -73 -21 -90 -27 -16 -5 -45 -14 -64 -18 -18 -5 -38 -13 -44 -19 -6 -6 -20 -11 -30 -11 -10 0 -31 -6 -45 -13 -15 -8 -42 -21 -60 -30 -19 -9 -42 -17 -52 -17 -9 0 -23 -7 -30 -15 -7 -8 -21 -15 -30 -15 -10 0 -31 -6 -47 -14 -84 -43 -272 -76 -425 -76 -42 0 -112 -7 -155 -15 -43 -8 -102 -15 -132 -15 -29 0 -99 -7 -155 -16 -81 -13 -139 -15 -291 -10 -104 4 -212 11 -240 16 -27 5 -79 9 -115 10 -36 0 -90 7 -120 15 -30 8 -75 15 -100 15 -25 0 -61 5 -80 11 -19 5 -66 14 -105 18 -72 9 -156 24 -235 43 -25 6 -63 14 -85 19 -69 14 -129 31 -157 45 -14 8 -34 14 -43 14 -9 0 -29 6 -43 13 -25 13 -60 29 -142 64 -19 8 -42 19 -50 24 -8 5 -22 12 -30 15 -8 3 -22 9 -30 14 -8 5 -37 21 -65 35 -27 14 -63 35 -80 45 -16 11 -37 23 -45 27 -23 10 -282 207 -321 243 -51 47 -226 180 -239 180 -5 0 -10 4 -10 9 0 5 -8 12 -17 15 -27 9 -98 77 -115 111 -22 44 -39 95 -47 140 -15 85 -76 127 -136 93z m5265 -780 c12 -59 29 -195 30 -228 0 -56 -27 -279 -42 -340 -6 -25 -14 -63 -18 -85 -4 -22 -13 -56 -20 -75 -25 -68 -43 -115 -56 -145 -7 -16 -15 -37 -18 -45 -3 -8 -10 -22 -15 -30 -5 -8 -12 -22 -16 -30 -3 -8 -11 -24 -18 -35 -39 -65 -110 -183 -120 -200 -56 -91 -159 -205 -187 -205 -8 0 -24 -7 -34 -15 -11 -8 -28 -15 -39 -15 -10 0 -31 -6 -45 -13 -15 -8 -43 -21 -62 -29 -19 -8 -51 -22 -70 -31 -19 -8 -52 -22 -73 -31 -54 -23 -172 -21 -220 3 -72 37 -152 109 -183 165 -47 83 -74 155 -85 226 -5 30 -13 71 -19 90 -14 49 -13 453 2 502 10 34 9 44 -7 70 -18 31 -18 31 6 49 13 10 32 19 41 19 17 0 66 19 121 46 16 8 36 14 46 14 9 0 26 7 37 15 10 8 29 15 42 15 13 0 33 5 45 12 12 6 40 15 62 19 22 4 54 11 70 17 45 15 123 34 181 42 28 4 61 13 72 19 11 6 33 11 49 11 15 1 39 7 53 15 14 8 37 14 51 15 14 0 34 7 45 15 10 8 28 15 40 15 11 0 29 7 40 15 10 8 27 15 37 15 11 0 31 6 45 14 15 7 47 23 72 35 50 24 74 38 109 64 20 14 50 23 51 15z m-4192 -301 c51 -32 152 -79 237 -110 96 -35 113 -40 157 -47 26 -5 56 -13 67 -19 11 -6 33 -11 49 -11 16 0 49 -7 72 -15 23 -8 59 -15 79 -15 20 0 58 -7 85 -15 27 -8 68 -15 90 -15 23 0 57 -5 76 -11 37 -11 165 -27 292 -36 83 -5 101 -18 67 -49 -10 -9 -19 -25 -19 -34 0 -10 -7 -31 -15 -46 -8 -16 -15 -38 -15 -49 0 -11 -7 -29 -15 -39 -8 -11 -15 -28 -15 -37 0 -10 -6 -30 -14 -46 -8 -15 -36 -72 -62 -127 -48 -101 -135 -227 -195 -282 -45 -42 -128 -97 -181 -121 -82 -37 -113 -46 -213 -59 -115 -15 -224 -4 -288 28 -50 25 -149 123 -169 168 -37 83 -48 112 -48 132 0 12 -6 44 -14 72 -19 67 -37 290 -45 548 -4 145 -10 211 -19 220 -17 17 -15 38 3 38 9 0 32 -10 53 -23z"
       id="path30" />
  </g>
  <g
     inkscape:groupmode="layer"
     id="layer1"
     inkscape:label="fill"
     style="opacity:0.85234899">
    <path
       style="fill:#ffe680;stroke-width:2.72644"
       d="m 560.15014,1439.3719 c -14.9954,-1.9933 -39.57995,-3.692 -54.63234,-3.7749 -32.27942,-0.1776 -84.10711,-6.3114 -103.85596,-12.2912 -7.69296,-2.3294 -20.48263,-5.4671 -28.4215,-6.9727 -18.895,-3.5833 -36.56714,-14.1679 -44.58728,-26.7052 -6.41817,-10.033 -6.43513,-10.2813 -4.22606,-61.8757 1.21987,-28.4913 2.30681,-102.2962 2.41541,-164.0109 0.13775,-78.2785 1.50726,-127.2722 4.52903,-162.0242 2.38236,-27.39857 3.85562,-53.89242 3.27391,-58.87523 -0.60655,-5.19549 0.16244,-9.03791 1.80291,-9.00866 1.57331,0.028 11.03061,4.19171 21.01621,9.2526 9.98561,5.06088 24.70836,10.0323 32.71723,11.04759 26.38686,3.34509 63.26758,9.69532 86.81214,14.94756 12.74609,2.84336 38.51091,5.94402 57.25516,6.89036 18.74425,0.94634 59.23182,4.96209 89.97238,8.92389 71.17168,9.17249 172.66952,10.58242 200.96927,2.7917 23.39479,-6.44041 60.07266,-25.20399 72.37379,-37.02483 l 10.24199,-9.84208 -2.06268,17.61098 c -2.79711,23.88134 -2.63731,375.68032 0.17476,384.58772 2.00009,6.3355 1.27723,7.4584 -6.81609,10.5878 -4.9794,1.9254 -27.4569,12.4123 -49.94999,23.3042 -28.17319,13.6424 -48.95466,21.7155 -66.79768,25.9493 -14.24563,3.3802 -38.2212,11.3771 -53.27906,17.771 -25.4079,10.7886 -29.72396,11.7558 -59.98159,13.4418 -17.93201,0.9991 -42.24765,3.5573 -54.03474,5.6848 -11.78709,2.1275 -22.82916,3.7265 -24.53792,3.5533 -1.70885,-0.1732 -15.3759,-1.9457 -30.3713,-3.939 z"
       id="path41"
       transform="scale(0.75)" />
  </g>
</svg>
