<?xml version="1.0" encoding="UTF-8" standalone="no"?>
<svg
   xmlns:dc="http://purl.org/dc/elements/1.1/"
   xmlns:cc="http://creativecommons.org/ns#"
   xmlns:rdf="http://www.w3.org/1999/02/22-rdf-syntax-ns#"
   xmlns:svg="http://www.w3.org/2000/svg"
   xmlns="http://www.w3.org/2000/svg"
   xmlns:sodipodi="http://sodipodi.sourceforge.net/DTD/sodipodi-0.dtd"
   xmlns:inkscape="http://www.inkscape.org/namespaces/inkscape"
   version="1.0"
   width="300.000000pt"
   height="388.000000pt"
   viewBox="0 0 300.000000 388.000000"
   preserveAspectRatio="xMidYMid meet"
   id="svg34"
   sodipodi:docname="battery-level-1.svg"
   inkscape:version="1.0.2 (e86c8708, 2021-01-15)">
  <defs
     id="defs38" />
  <sodipodi:namedview
     pagecolor="#2b2c37"
     bordercolor="#666666"
     borderopacity="1"
     objecttolerance="10"
     gridtolerance="10"
     guidetolerance="10"
     inkscape:pageopacity="0"
     inkscape:pageshadow="2"
     inkscape:window-width="1440"
     inkscape:window-height="812"
     id="namedview36"
     showgrid="false"
     inkscape:zoom="0.81014831"
     inkscape:cx="96.308938"
     inkscape:cy="266.9503"
     inkscape:window-x="0"
     inkscape:window-y="25"
     inkscape:window-maximized="1"
     inkscape:current-layer="layer1" />
  <metadata
     id="metadata10">
Created by potrace 1.10, written by Peter Selinger 2001-2011
<rdf:RDF>
  <cc:Work
     rdf:about="">
    <dc:format>image/svg+xml</dc:format>
    <dc:type
       rdf:resource="http://purl.org/dc/dcmitype/StillImage" />
    <dc:title></dc:title>
  </cc:Work>
</rdf:RDF>
</metadata>
  <g
     transform="translate(0.000000,388.000000) scale(0.050000,-0.050000)"
     fill="#ffffff"
     stroke="none"
     id="g32">
    <path
       d="M2897 7600 c-202 -26 -511 -207 -547 -319 -6 -20 -30 -42 -54 -48 -50 -13 -46 -462 5 -493 69 -43 84 0 70 193 -13 185 -3 219 48 158 114 -137 464 -105 659 62 100 86 111 79 111 -69 -1 -317 -289 -520 -602 -425 -175 53 -297 50 -297 -9 0 -33 18 -42 100 -53 55 -7 139 -28 188 -45 422 -154 922 402 661 735 -21 27 -39 71 -39 97 0 69 -111 237 -155 233 -19 -1 -86 -9 -148 -17z m178 -155 c115 -150 -231 -391 -470 -326 -189 50 -205 119 -53 226 200 142 454 190 523 100z"
       id="path12" />
    <path
       d="M3320 7122 c0 -52 0 -52 250 -78 156 -16 244 -39 399 -102 414 -167 429 -242 90 -446 -360 -218 -462 -236 -1370 -242 l-619 -3 -230 84 c-163 60 -243 101 -276 140 -25 30 -61 74 -81 97 -19 23 -48 47 -64 53 -49 20 495 232 726 284 62 13 77 84 23 105 -37 14 -604 -173 -757 -249 -190 -95 -254 -163 -208 -218 17 -21 25 -230 29 -733 4 -387 11 -848 17 -1024 l11 -320 -135 -64 c-243 -115 -322 -191 -434 -414 -244 -487 -50 -637 425 -328 154 100 142 133 108 -294 -50 -618 -43 -1518 11 -1526 64 -10 73 55 58 431 -9 237 -3 445 22 751 36 431 46 3085 14 3411 -15 151 23 150 130 -5 33 -48 76 -94 95 -102 20 -8 135 -51 256 -96 l220 -81 520 -8 c895 -14 1151 24 1497 220 336 192 428 334 311 483 -148 188 -1038 423 -1038 274z m-2060 -3010 l0 -248 -203 -122 c-199 -119 -311 -160 -358 -131 -70 43 105 461 236 564 79 62 284 184 310 185 8 0 15 -112 15 -248z"
       id="path14" />
    <path
       d="M4447 6695 c-41 -67 -40 -1622 2 -2515 6 -126 16 -455 22 -730 6 -275 20 -635 32 -800 11 -165 17 -444 13 -620 l-6 -320 50 0 c64 0 85 272 56 750 -18 306 -52 1205 -45 1215 1 3 43 -16 91 -43 344 -191 771 -108 710 138 -13 52 -236 356 -350 476 -83 88 -326 216 -415 218 l-61 2 -14 372 c-15 418 -12 1375 6 1657 7 102 9 194 5 205 -9 28 -78 25 -96 -5z m378 -2421 c125 -74 455 -473 455 -550 0 -103 -246 -132 -450 -54 -77 30 -169 64 -205 77 l-65 23 0 252 c0 139 -6 282 -13 316 l-12 64 102 -39 c57 -22 141 -62 188 -89z"
       id="path16" />
    <path
       d="M2075 4527 c-131 -70 -175 -133 -110 -157 47 -18 325 136 325 180 0 64 -67 56 -215 -23z"
       id="path18" />
    <path
       d="M3361 4551 c-28 -34 1 -91 46 -91 12 0 69 -19 126 -43 189 -78 240 11 53 94 -159 70 -195 77 -225 40z"
       id="path20" />
    <path
       d="M2231 4266 c-16 -42 36 -95 77 -79 18 6 32 35 32 62 0 60 -87 74 -109 17z"
       id="path22" />
    <path
       d="M3167 4270 c-18 -47 8 -90 53 -90 51 0 73 50 40 90 -32 39 -78 38 -93 0z"
       id="path24" />
    <path
       d="M2707 3905 c-106 -60 -167 -119 -167 -163 0 -60 49 -52 143 23 110 88 254 92 369 10 69 -49 80 -51 107 -24 112 112 -286 248 -452 154z"
       id="path26" />
    <path
       d="M2540 3420 c-584 -84 -1032 -240 -971 -339 7 -11 3 -21 -11 -21 -28 0 -7 -1346 22 -1356 9 -3 44 -33 78 -65 34 -32 68 -59 77 -59 8 0 96 -14 195 -30 919 -151 1734 -54 2153 258 l123 91 6 582 c3 416 12 589 29 610 77 93 -353 298 -727 348 -230 31 -688 22 -974 -19z m900 -81 c326 -34 689 -171 625 -236 -72 -74 -648 -239 -988 -284 -472 -61 -1335 72 -1427 220 -56 91 751 287 1270 308 72 3 175 7 230 9 55 2 186 -6 290 -17z m665 -854 l-4 -515 -82 -74 c-88 -79 -382 -204 -619 -263 -394 -98 -1557 -26 -1682 104 l-52 54 -14 564 -14 564 88 -50 c299 -167 1167 -219 1680 -100 252 58 704 206 704 230 0 1 -2 -231 -5 -514z"
       id="path28"
       style="fill:#ff6600" />
    <path
       d="M1133 1784 c-24 -38 37 -169 106 -226 122 -104 278 -218 389 -284 85 -51 101 -69 81 -88 -26 -25 -25 -58 13 -356 86 -662 765 -594 941 94 23 90 29 96 91 96 77 0 607 74 651 91 25 9 31 -22 39 -195 38 -837 928 -574 971 287 6 115 1 219 -12 256 -21 60 -18 65 48 104 74 44 86 78 40 116 -24 20 -53 7 -158 -67 -154 -111 -253 -156 -486 -223 -97 -28 -244 -81 -327 -118 -546 -243 -1548 -149 -1972 184 -54 43 -139 105 -190 140 -62 42 -98 84 -110 129 -19 65 -90 102 -115 60z m3182 -542 c-17 -334 -141 -570 -355 -676 -264 -132 -398 -7 -416 387 l-9 203 59 31 c33 17 153 58 268 92 114 34 258 87 318 118 144 74 147 70 135 -155z m-2333 -123 c125 -40 375 -79 509 -79 104 0 103 1 41 -170 -88 -243 -205 -356 -397 -382 -190 -26 -278 86 -314 403 -30 262 -28 296 14 279 19 -8 85 -31 147 -51z"
       id="path30" />
  </g>
  <g
     inkscape:groupmode="layer"
     id="layer1"
     inkscape:label="fill"
     style="opacity:0.83892617">
    <path
       style="fill:#ff7f2a;stroke-width:0.818565"
       d="m 166.43882,410.42629 c -21.50278,-1.19949 -43.05866,-4.54935 -48.92956,-7.60381 -1.22693,-0.63833 -3.06837,-2.0575 -4.09209,-3.1537 -1.81998,-1.94885 -1.87858,-2.58219 -2.63906,-28.52293 -0.42776,-14.5914 -0.78732,-31.21692 -0.79903,-36.94561 l -0.0213,-10.41579 5.52531,2.86571 c 12.97317,6.72855 36.61588,10.4153 66.91772,10.43489 22.77287,0.0147 33.72163,-1.18853 50.95164,-5.5995 9.23222,-2.3635 32.65404,-9.74777 38.99401,-12.29377 1.49874,-0.60187 1.52544,0.29067 0.98319,32.86693 l -0.55741,33.48559 -3.89049,3.68355 c -6.55799,6.20914 -26.40919,14.89256 -43.09697,18.85171 -12.16265,2.88557 -34.121,3.75387 -59.34599,2.34673 z"
       id="path41"
       transform="scale(0.75000001)" />
  </g>
</svg>
