<?xml version="1.0" encoding="UTF-8" standalone="no"?>
<svg
   xmlns:dc="http://purl.org/dc/elements/1.1/"
   xmlns:cc="http://creativecommons.org/ns#"
   xmlns:rdf="http://www.w3.org/1999/02/22-rdf-syntax-ns#"
   xmlns:svg="http://www.w3.org/2000/svg"
   xmlns="http://www.w3.org/2000/svg"
   xmlns:sodipodi="http://sodipodi.sourceforge.net/DTD/sodipodi-0.dtd"
   xmlns:inkscape="http://www.inkscape.org/namespaces/inkscape"
   version="1.0"
   width="300.000000pt"
   height="431.000000pt"
   viewBox="0 0 300.000000 431.000000"
   preserveAspectRatio="xMidYMid meet"
   id="svg36"
   sodipodi:docname="battery-level-3.svg"
   inkscape:version="1.0.2 (e86c8708, 2021-01-15)">
  <defs
     id="defs40" />
  <sodipodi:namedview
     pagecolor="#2b2b39"
     bordercolor="#666666"
     borderopacity="1"
     objecttolerance="10"
     gridtolerance="10"
     guidetolerance="10"
     inkscape:pageopacity="0"
     inkscape:pageshadow="2"
     inkscape:window-width="1440"
     inkscape:window-height="812"
     id="namedview38"
     showgrid="false"
     inkscape:zoom="1.1099572"
     inkscape:cx="-28.410928"
     inkscape:cy="305.1636"
     inkscape:window-x="0"
     inkscape:window-y="25"
     inkscape:window-maximized="1"
     inkscape:current-layer="svg36" />
  <metadata
     id="metadata10">
Created by potrace 1.10, written by Peter Selinger 2001-2011
<rdf:RDF>
  <cc:Work
     rdf:about="">
    <dc:format>image/svg+xml</dc:format>
    <dc:type
       rdf:resource="http://purl.org/dc/dcmitype/StillImage" />
    <dc:title></dc:title>
  </cc:Work>
</rdf:RDF>
</metadata>
  <g
     transform="translate(0.000000,431.000000) scale(0.100000,-0.100000)"
     fill="#ffffff"
     stroke="none"
     id="g34">
    <path
       d="M1500 4210 c-108 -15 -254 -92 -291 -154 -11 -19 -29 -36 -40 -39 -20 -5 -21 -11 -18 -132 4 -129 11 -151 47 -138 11 5 13 26 10 109 -2 57 -1 104 3 104 3 0 14 -9 24 -20 27 -30 109 -53 174 -48 67 5 156 44 201 89 21 21 31 26 34 17 12 -38 13 -78 4 -122 -19 -88 -143 -196 -226 -196 -17 0 -67 12 -112 26 -101 31 -145 30 -145 -6 0 -22 5 -25 36 -26 19 -1 66 -12 105 -24 127 -43 206 -26 306 68 73 68 92 111 93 204 0 62 -4 82 -21 105 -11 15 -23 48 -27 72 -6 49 -53 115 -83 117 -10 1 -44 -2 -74 -6z m61 -67 c25 -5 49 -37 49 -67 0 -22 -66 -82 -117 -107 -63 -31 -141 -31 -200 -1 -52 27 -55 50 -12 87 60 50 199 109 234 99 11 -3 32 -8 46 -11z"
       id="path12" />
    <path
       d="M1723 3954 c-10 -27 25 -44 91 -44 78 -1 130 -13 241 -57 158 -63 195 -88 195 -133 0 -36 -28 -59 -161 -135 -173 -98 -184 -100 -654 -100 l-390 0 -100 38 c-159 60 -169 65 -196 108 -13 23 -37 48 -53 56 -24 13 -27 17 -14 24 31 17 372 129 393 129 28 0 47 22 39 45 -10 25 -55 15 -261 -55 -225 -76 -317 -134 -282 -176 10 -12 13 -131 13 -520 1 -444 -1 -503 -14 -498 -100 43 -225 59 -268 35 -63 -34 -79 -125 -35 -200 30 -52 161 -221 172 -221 3 0 27 -20 53 -45 51 -49 63 -53 72 -29 8 22 -14 55 -63 94 -41 33 -150 167 -189 231 -27 45 -21 93 15 117 22 14 34 14 93 4 37 -6 89 -21 115 -32 l48 -21 -6 -267 c-4 -147 -14 -339 -23 -427 -16 -164 -34 -739 -23 -757 4 -5 15 -8 25 -6 27 5 35 81 28 258 -3 97 0 204 11 322 8 98 20 235 27 305 6 70 13 475 17 898 l6 770 30 -33 c17 -19 44 -49 60 -68 30 -35 45 -42 260 -117 57 -20 79 -21 435 -21 451 0 478 4 647 91 143 72 203 117 221 165 33 87 -21 144 -208 217 -95 38 -155 55 -213 61 -118 14 -147 13 -154 -6z"
       id="path14" />
    <path
       d="M2336 3712 c-11 -17 -16 -93 -27 -362 -11 -275 -3 -1048 18 -1725 9 -282 9 -392 3 -514 -4 -81 -3 -95 12 -105 13 -8 21 -7 30 2 16 16 17 269 4 982 l-9 505 34 26 c19 14 65 44 103 67 63 38 76 42 134 42 l65 0 -6 -74 c-9 -119 -55 -190 -168 -257 -104 -62 -166 -134 -144 -168 12 -20 31 -11 61 28 16 22 53 55 82 73 170 106 222 184 222 334 0 66 -3 78 -25 99 -19 20 -34 25 -73 25 -73 0 -129 -21 -217 -80 l-78 -53 7 519 c3 286 10 541 15 569 5 27 6 55 4 62 -6 14 -39 18 -47 5z"
       id="path16" />
    <path
       d="m 1325,3075 c -293,-29 -451,-73 -528,-146 l -35,-34 -16,-295 c -10,-197 -14,-376 -10,-540 3,-135 6,-402 7,-594 2,-272 -9.09513,-392.2854 0.90487,-396.2854 18,-6 58.09513,60.2854 52.09513,77.2854 -3,7 -1,68 4,136 6,82 5,205 -3,377 -13,280 -11,762 4,965 5,72 9,142 9,157 v 27 l 57,-26 c 38,-18 58,-22 61,-15 2,7 27,12 60,13 l 57,1 -59,14 c -33,8 -64,18 -70,23 -6,4 -32,16 -58,26 -26,9 -46,22 -45,28 2,11 28,28 101,68 105,57 566,106 841,90 118,-7 150,-13 204,-35 93,-40 144,-75 130,-92 -6,-7 -8,-17 -5,-22 3,-5 -2,-16 -12,-25 -21,-19 -147,-77 -170,-78 -10,0 -2,-5 16,-10 18,-5 30,-14 27,-19 -10,-17 13,-11 83,20 39,18 90,20 83,24 -8,5 -4,14 9,30 25,30 -5.7332,13.3342 -5.7332,-28.6658 0,-19 5.8431,55.0066 0.8431,58.0066 -11,7 -27.1099,-150.3408 -24.1099,-228.3408 1,-33 -2,-285 -6,-560 -6,-364 -4,-533 4,-620 26,-257 37,-350 44,-362 7,-11 -69,-43 -105,-43 -10,0 -50,-11 -89,-25 -39,-13 -117,-31 -172,-40 -56,-8 -117,-19 -135,-24 -19,-6 -81,-20 -139,-31 -97,-20 -116,-21 -227,-10 -97,9 -153,21 -281,62 -142,45 -164,56 -197,90 -40,41 -62,48 -72,22 -10,-26 41,-83 97,-109 29,-13 109,-41 178,-64 99,-32 153,-42 259,-52 146,-13 191,-9 385,36 55,13 135,28 178,35 42,6 109,22 147,36 38,13 79,24 90,24 35,0 122,38 152,67 44,42 34,106 -13,82 -14,-7 -17,2 -22,69 -3,42 -11,118 -18,167 -9,66 -12,227 -9,595 6,964 7,916 -12,937 -14,15 12.9326,-35.7992 22.9326,-25.7992 34,35 -184.9326,186.7992 -315.9326,199.7992 -116,11 -360,8 -510,-6 z M 808,2816 c -20,-19 32.6817,-20.1502 38.6817,11.8498 4,23 -52.6817,32.1502 -38.6817,19.1502 13,-14 13,-17 0,-31 z M 2168.6061,1064.4854 c 20,-15 -58.3937,-21.8894 -34.5451,-18.8488 99.3213,12.6632 36.0269,21.8171 7.939,54.3634 -3,43 -1.3939,-14.5146 26.6061,-35.5146 z"
       id="path18"
       style="fill:#ccff00"
       sodipodi:nodetypes="cccccccccccscccccccccccccsccsccccscccccscccccccsccccccscccccccccccccsscs" />
    <path
       d="M1707 2768 c-34 -25 -11 -45 56 -50 35 -3 81 -15 103 -26 44 -22 68 -17 62 14 -8 44 -181 92 -221 62z"
       id="path20" />
    <path
       d="M1020 2756 c-107 -31 -138 -54 -109 -83 7 -7 30 -4 78 13 38 13 99 27 137 31 60 7 69 11 69 28 0 18 -7 20 -65 22 -36 1 -85 -4 -110 -11z"
       id="path22" />
    <path
       d="M1229 2749 c13 -11 18 -19 12 -19 -6 0 -11 -4 -11 -8 0 -10 412 -24 436 -15 12 4 13 8 3 14 -10 6 -10 11 0 23 12 14 1 16 -108 16 -66 0 -173 2 -238 4 -115 3 -116 3 -94 -15z"
       id="path24"
       style="fill:#ccff00" />
    <path
       d="M1174 2655 c-8 -20 13 -45 38 -45 24 0 34 26 18 45 -16 19 -49 19 -56 0z"
       id="path26" />
    <path
       d="M1752 2648 c-16 -16 -15 -45 3 -51 7 -3 24 2 37 12 19 16 20 21 9 35 -16 19 -33 20 -49 4z"
       id="path28" />
    <path
       d="M1636 2415 c-20 -31 -47 -60 -59 -64 -42 -16 -121 21 -137 64 -12 31 -28 39 -45 25 -53 -44 66 -150 168 -150 31 0 75 35 122 101 38 51 40 79 7 79 -12 0 -33 -21 -56 -55z"
       id="path30" />
    <path
       d="M501 1077 c-8 -11 -9 -22 -1 -43 21 -58 36 -77 90 -115 30 -21 69 -50 85 -63 17 -14 56 -40 88 -59 45 -27 55 -37 43 -44 -13 -7 -14 -25 -6 -128 15 -191 43 -259 124 -296 73 -33 181 -18 252 36 64 49 144 199 144 271 0 20 4 22 33 18 31 -5 337 29 368 41 13 5 15 -7 15 -77 0 -105 18 -176 55 -228 38 -52 84 -80 132 -80 58 0 183 57 218 99 40 49 94 155 114 224 18 64 23 206 7 247 -8 21 -5 28 30 53 40 28 44 43 17 60 -11 7 -33 -3 -85 -38 -84 -58 -123 -75 -261 -115 -59 -17 -139 -45 -178 -62 -52 -23 -104 -36 -205 -49 -173 -24 -284 -24 -445 0 -217 32 -265 54 -499 225 -40 29 -67 58 -80 86 -23 48 -37 58 -55 37z m1718 -289 c1 -75 -15 -149 -49 -223 -44 -97 -81 -140 -147 -170 -81 -37 -108 -41 -140 -19 -67 43 -86 92 -87 232 l-1 114 55 22 c30 12 100 35 155 50 55 15 123 39 150 54 59 32 63 29 64 -60z m-1279 -74 c63 -22 246 -54 308 -54 l31 0 -18 -53 c-57 -166 -133 -239 -248 -241 -105 -1 -138 51 -156 248 -12 123 -11 136 3 130 8 -4 44 -17 80 -30z"
       id="path32" />
  </g>
  <g
     inkscape:groupmode="layer"
     id="layer1"
     inkscape:label="fill"
     style="opacity:1">
    <path
       style="fill:#ccff00;fill-opacity:0.419608;stroke-width:0.819186"
       d="m 168.24902,452.9543 c -10.1611,-1.02433 -21.62919,-3.61461 -36.28485,-8.1956 -16.22316,-5.07095 -21.22722,-7.27971 -25.57771,-11.28986 l -3.45322,-3.18307 1.65127,-2.60799 c 1.38695,-2.19054 1.73001,-4.53145 2.14321,-14.62465 0.74318,-18.1536 0.59788,-41.60978 -0.51848,-83.69543 -0.71171,-26.83102 -0.78549,-47.05262 -0.24954,-68.40203 0.67683,-26.96154 2.24245,-58.4831 2.94377,-59.26895 0.14115,-0.15816 3.24553,0.93449 6.89863,2.42812 5.55214,2.27007 6.90331,2.55248 8.23451,1.72114 2.21168,-1.38122 10.33023,-1.30795 10.86978,0.0981 0.28992,0.75551 -1.29962,1.64625 -5.15169,2.88689 -7.12904,2.29607 -10.01239,4.49455 -9.6781,7.37932 0.36106,3.11574 3.74916,3.17411 13.98142,0.24088 4.65463,-1.33433 11.39486,-2.85782 14.97829,-3.38554 3.58343,-0.52773 8.33324,-1.4859 10.55514,-2.12929 5.03524,-1.45803 5.82646,-1.46502 4.64468,-0.0411 -1.49396,1.80011 0.79327,2.05106 28.17887,3.09176 25.78945,0.98004 32.03638,0.71569 31.25422,-1.32258 -0.54061,-1.40883 2.34742,-2.19183 4.66761,-1.26549 0.9684,0.38663 4.70979,1.13738 8.31421,1.66834 3.60442,0.53095 8.73668,1.84866 11.40504,2.92824 2.66835,1.07957 5.72115,1.96286 6.78399,1.96286 3.92544,0 3.40567,-5.65038 -0.75239,-8.17904 l -2.58944,-1.57474 2.31003,-0.87827 c 2.82466,-1.07393 5.46188,-0.38979 4.83134,1.25335 -0.71489,1.86297 1.6315,1.45015 8.98207,-1.58031 3.69155,-1.52193 7.96371,-3.03756 9.49369,-3.36806 2.64371,-0.57109 2.75246,-0.5049 2.19116,1.33358 -0.84281,2.76057 -2.30897,126.00883 -1.83071,153.89347 0.32428,18.90684 0.87951,27.4849 2.91957,45.10636 1.38553,11.96776 2.75335,22.93059 3.03961,24.36186 0.50033,2.50163 0.35042,2.68106 -3.87527,4.63885 -2.41764,1.12011 -6.0571,2.27168 -8.08767,2.55905 -2.03057,0.28736 -7.74693,1.73514 -12.703,3.21728 -4.95608,1.48215 -13.25033,3.4932 -18.43168,4.46901 -12.26704,2.31026 -22.70592,4.39421 -39.32093,7.84977 -14.17572,2.94824 -19.39708,3.2516 -32.76743,1.90373 z m 46.41425,-185.74655 c 3.64407,-2.63975 8.1996,-7.72152 11.83938,-13.20702 3.11679,-4.69729 3.0357,-8.48442 -0.18967,-8.85852 -1.72271,-0.1998 -2.8542,0.59052 -5.7343,4.00527 -10.97899,13.01709 -12.37682,13.76813 -19.56223,10.51058 -4.57108,-2.07233 -7.07254,-4.35966 -9.10741,-8.32782 -1.74835,-3.4094 -4.06154,-4.01114 -6.59741,-1.71621 -6.45802,5.84443 9.22205,19.82325 22.3402,19.91635 2.87559,0.0204 4.53648,-0.52978 7.01144,-2.32263 z m 24.47415,-39.93291 c 2.66926,-1.74897 2.64036,-4.78569 -0.0623,-6.55659 -2.61657,-1.71444 -5.75234,-0.54139 -6.94609,2.59844 -1.71492,4.51057 2.51737,6.90082 7.00846,3.95815 z m -74.11894,-2.44971 c 0.36766,-1.00247 0.22302,-2.54619 -0.34541,-3.68633 -0.81313,-1.63098 -1.59521,-1.96161 -4.64011,-1.96161 -3.36587,0 -3.68272,0.17823 -3.91656,2.20314 -0.55344,4.79249 7.29405,7.82921 8.90208,3.4448 z"
       id="path76"
       transform="scale(0.74999999)" />
  </g>
</svg>
