<?xml version="1.0" encoding="UTF-8" standalone="no"?>
<svg
   xmlns:dc="http://purl.org/dc/elements/1.1/"
   xmlns:cc="http://creativecommons.org/ns#"
   xmlns:rdf="http://www.w3.org/1999/02/22-rdf-syntax-ns#"
   xmlns:svg="http://www.w3.org/2000/svg"
   xmlns="http://www.w3.org/2000/svg"
   xmlns:sodipodi="http://sodipodi.sourceforge.net/DTD/sodipodi-0.dtd"
   xmlns:inkscape="http://www.inkscape.org/namespaces/inkscape"
   version="1.1"
   id="Capa_1"
   x="0px"
   y="0px"
   viewBox="0 0 230.262 230.262"
   style="enable-background:new 0 0 230.262 230.262;"
   xml:space="preserve"
   sodipodi:docname="home.svg"
   inkscape:version="1.0.2 (e86c8708, 2021-01-15)"><metadata
   id="metadata870"><rdf:RDF><cc:Work
       rdf:about=""><dc:format>image/svg+xml</dc:format><dc:type
         rdf:resource="http://purl.org/dc/dcmitype/StillImage" /></cc:Work></rdf:RDF></metadata><defs
   id="defs868" /><sodipodi:namedview
   pagecolor="#ffffff"
   bordercolor="#666666"
   borderopacity="1"
   objecttolerance="10"
   gridtolerance="10"
   guidetolerance="10"
   inkscape:pageopacity="0"
   inkscape:pageshadow="2"
   inkscape:window-width="776"
   inkscape:window-height="480"
   id="namedview866"
   showgrid="false"
   inkscape:zoom="2.7446995"
   inkscape:cx="115.131"
   inkscape:cy="115.131"
   inkscape:window-x="87"
   inkscape:window-y="234"
   inkscape:window-maximized="0"
   inkscape:current-layer="Capa_1" />
<path
   d="M228.065,125.587l-51.619-51.615V23.263c0-4.142-3.357-7.5-7.5-7.5c-4.143,0-7.5,3.358-7.5,7.5v35.709L120.43,17.96  c-2.928-2.929-7.677-2.928-10.606,0L2.197,125.587c-2.929,2.929-2.929,7.678,0,10.606c2.93,2.929,7.678,2.929,10.608,0l18.72-18.72  v89.525c0,4.142,3.357,7.5,7.5,7.5h152.215c4.143,0,7.5-3.358,7.5-7.5v-89.524l18.721,18.719c1.464,1.464,3.384,2.196,5.303,2.196  c1.919,0,3.839-0.732,5.304-2.197C230.994,133.264,230.994,128.516,228.065,125.587z M183.739,199.499H46.524v-97.025l68.604-68.604  l68.611,68.606V199.499z"
   id="path833"
   style="fill:#ffffff" />
<g
   id="g835">
</g>
<g
   id="g837">
</g>
<g
   id="g839">
</g>
<g
   id="g841">
</g>
<g
   id="g843">
</g>
<g
   id="g845">
</g>
<g
   id="g847">
</g>
<g
   id="g849">
</g>
<g
   id="g851">
</g>
<g
   id="g853">
</g>
<g
   id="g855">
</g>
<g
   id="g857">
</g>
<g
   id="g859">
</g>
<g
   id="g861">
</g>
<g
   id="g863">
</g>
</svg>
