<?xml version="1.0" encoding="UTF-8" standalone="no"?>
<svg
   xmlns:dc="http://purl.org/dc/elements/1.1/"
   xmlns:cc="http://creativecommons.org/ns#"
   xmlns:rdf="http://www.w3.org/1999/02/22-rdf-syntax-ns#"
   xmlns:svg="http://www.w3.org/2000/svg"
   xmlns="http://www.w3.org/2000/svg"
   xmlns:sodipodi="http://sodipodi.sourceforge.net/DTD/sodipodi-0.dtd"
   xmlns:inkscape="http://www.inkscape.org/namespaces/inkscape"
   version="1.0"
   width="900.000000pt"
   height="822.000000pt"
   viewBox="0 0 900.000000 822.000000"
   preserveAspectRatio="xMidYMid meet"
   id="svg861"
   sodipodi:docname="rover.svg"
   inkscape:version="1.0.2 (e86c8708, 2021-01-15)">
  <defs
     id="defs865" />
  <sodipodi:namedview
     pagecolor="#ffffff"
     bordercolor="#666666"
     borderopacity="1"
     objecttolerance="10"
     gridtolerance="10"
     guidetolerance="10"
     inkscape:pageopacity="0"
     inkscape:pageshadow="2"
     inkscape:window-width="1389"
     inkscape:window-height="811"
     id="namedview863"
     showgrid="false"
     inkscape:zoom="0.44488888"
     inkscape:cx="376.05165"
     inkscape:cy="523.63351"
     inkscape:window-x="18"
     inkscape:window-y="25"
     inkscape:window-maximized="0"
     inkscape:current-layer="svg861"
     inkscape:document-rotation="0" />
  <metadata
     id="metadata833">
Created by potrace 1.10, written by Peter Selinger 2001-2011
<rdf:RDF>
  <cc:Work
     rdf:about="">
    <dc:format>image/svg+xml</dc:format>
    <dc:type
       rdf:resource="http://purl.org/dc/dcmitype/StillImage" />
  </cc:Work>
</rdf:RDF>
</metadata>
  <g
     transform="matrix(0.12549721,0,0,-0.11218883,-133.03928,871.55208)"
     fill="#000000"
     stroke="none"
     id="g859">
    <path
       d="m 1945,7653 c -40,-19 -65,-64 -65,-117 0,-34 -6,-48 -30,-71 -16,-16 -30,-34 -30,-39 0,-6 -10,-22 -23,-36 -119,-132 -130,-229 -26,-230 20,0 56,7 80,15 25,9 46,12 52,6 5,-5 13,-39 17,-77 11,-80 24,-130 41,-150 19,-23 57,-17 76,13 18,27 26,48 65,161 12,34 26,62 30,62 5,0 28,-20 51,-45 24,-25 48,-45 54,-45 6,0 16,-7 23,-15 20,-24 88,-19 111,8 23,27 24,50 3,90 -10,18 -24,45 -32,62 -9,16 -27,40 -40,52 -22,20 -24,26 -13,46 7,13 25,37 41,54 35,37 46,74 30,102 -9,18 -20,21 -78,21 -45,0 -75,-5 -88,-15 -10,-8 -27,-15 -37,-15 -19,0 -98,80 -129,131 -25,41 -47,49 -83,32 z m 86,-158 c 23,-30 57,-63 76,-72 33,-15 38,-15 82,0 25,10 49,17 54,17 14,0 7,-37 -12,-54 -41,-37 -34,-100 16,-139 26,-21 55,-71 46,-80 -10,-11 -56,20 -102,67 -35,36 -51,46 -77,46 -40,0 -44,-6 -69,-99 -22,-82 -40,-100 -49,-49 -17,85 -30,120 -53,135 -21,14 -25,14 -48,-1 -24,-16 -105,-23 -105,-8 1,4 18,26 39,50 26,28 47,42 64,42 34,0 42,14 56,105 19,117 22,119 82,40 z"
       id="path835" />
    <path
       d="m 5410,7445 c -25,-8 -60,-15 -77,-15 -38,0 -78,-33 -69,-57 3,-8 6,-19 6,-24 0,-5 8,-9 18,-9 27,0 32,-9 19,-31 -10,-16 -8,-23 11,-41 20,-20 25,-21 54,-9 76,30 151,44 283,52 219,13 338,1 452,-48 17,-7 38,-13 46,-13 9,0 28,-7 44,-15 15,-8 62,-30 103,-50 146,-71 238,-130 445,-284 77,-58 145,-108 150,-113 6,-4 28,-22 50,-41 22,-18 69,-55 105,-82 36,-27 76,-59 90,-71 81,-70 134,-121 142,-139 9,-21 17,-34 59,-100 14,-22 40,-71 59,-110 37,-75 46,-85 72,-85 28,0 48,29 48,70 0,102 -334,507 -524,635 -28,19 -73,53 -101,75 -27,22 -84,66 -125,99 -42,32 -81,66 -89,75 -7,9 -18,16 -23,16 -6,0 -27,14 -48,30 -21,17 -44,30 -51,30 -7,0 -20,7 -29,15 -18,17 -84,54 -150,85 -25,11 -58,28 -73,35 -16,8 -36,15 -45,15 -9,0 -26,7 -36,15 -11,8 -28,15 -37,15 -10,0 -30,6 -46,14 -127,64 -161,69 -438,72 -197,3 -260,0 -295,-11 z"
       id="path837" />
    <path
       d="m 6358,6465 c -32,-32 -86,-126 -103,-179 -5,-18 -7,-18 -30,4 -23,22 -26,22 -57,7 -18,-9 -65,-21 -103,-28 -39,-7 -77,-18 -86,-26 -8,-7 -20,-13 -25,-13 -25,-1 -54,-40 -54,-72 0,-44 25,-67 133,-120 52,-25 59,-46 33,-96 -21,-41 -30,-116 -17,-141 9,-16 21,-21 53,-21 58,0 124,35 185,97 29,29 61,53 70,53 10,0 33,-22 53,-51 38,-56 87,-99 113,-99 8,0 27,14 41,31 24,28 26,38 26,118 v 87 l 38,21 c 82,47 112,115 72,166 -20,25 -26,27 -100,27 -52,0 -81,4 -88,13 -6,7 -16,55 -22,107 -13,117 -25,144 -65,148 -24,2 -39,-5 -67,-33 z m 52,-146 c 0,-58 24,-128 51,-144 6,-4 43,-10 82,-14 62,-5 72,-9 75,-26 2,-15 -8,-25 -42,-39 -61,-27 -78,-58 -70,-135 6,-52 5,-61 -9,-61 -9,0 -23,13 -31,29 -19,35 -69,79 -101,87 -29,7 -84,-27 -150,-95 -27,-28 -58,-51 -68,-51 -17,0 -18,5 -12,37 4,21 13,50 21,65 8,15 14,36 14,47 0,24 -45,62 -113,96 -29,15 -56,31 -61,35 -16,16 73,47 151,54 66,6 72,4 78,-14 8,-27 37,-25 62,3 18,20 63,105 63,120 0,16 43,76 51,71 5,-3 9,-32 9,-65 z"
       id="path839" />
    <path
       d="m 2469,6366 c -25,-7 -101,-16 -170,-20 -176,-10 -232,-23 -271,-63 -29,-30 -31,-36 -30,-106 1,-41 9,-90 17,-110 9,-23 15,-68 15,-119 0,-200 82,-318 222,-318 29,0 58,-4 64,-8 6,-4 10,-39 10,-83 -1,-76 -1,-76 36,-109 21,-19 55,-40 75,-48 72,-26 223,-44 341,-38 103,4 113,3 107,-12 -16,-41 -16,-121 -2,-283 9,-96 21,-246 26,-334 16,-237 29,-417 33,-445 3,-23 0,-24 -92,-38 -52,-8 -109,-21 -126,-29 -30,-15 -64,-62 -64,-88 0,-52 98,-169 174,-209 34,-18 37,-18 55,-2 14,13 33,16 82,14 l 63,-3 -1,-100 -1,-100 -53,-6 c -53,-6 -103,-17 -205,-45 -75,-21 -248,-19 -285,3 -28,17 -30,17 -51,-4 -21,-22 -21,-22 -3,-57 l 19,-35 -26,-20 c -14,-12 -43,-46 -64,-78 -36,-54 -37,-60 -38,-143 l -1,-86 39,-36 c 35,-33 46,-37 115,-43 127,-11 140,-14 147,-42 4,-14 26,-45 50,-70 24,-25 44,-49 44,-55 0,-5 29,-47 64,-93 l 64,-83 -18,-28 c -23,-34 -12,-61 31,-76 29,-10 30,-11 22,-57 -18,-106 -3,-413 22,-447 13,-56 -11,-65 13,-56 26,9 57,61 52,97 -3,22 -5,130 -5,240 v 200 l 90,6 c 78,5 695,36 840,42 l 50,2 5,-250 c 3,-137 1,-253 -3,-256 -5,-4 -29,-4 -53,-1 -51,5 -413,-21 -584,-43 -63,-8 -173,-18 -245,-21 -71,-4 -138,-11 -147,-16 -29,-14 -22,-48 12,-61 17,-6 30,-14 30,-18 0,-20 -176,-202 -264,-274 -27,-22 -74,-63 -105,-92 -79,-74 -97,-69 -79,23 13,68 1,177 -25,228 -49,95 -165,170 -299,195 -58,10 -167,-3 -213,-26 -11,-5 -38,-19 -59,-29 -22,-10 -57,-31 -78,-47 -49,-35 -141,-152 -163,-207 -4,-8 -12,-28 -19,-45 -45,-104 -68,-244 -73,-438 -4,-126 -1,-168 11,-204 9,-26 16,-59 16,-74 0,-15 4,-30 9,-34 5,-3 13,-20 16,-38 7,-31 13,-45 48,-115 9,-19 17,-38 17,-43 0,-6 18,-34 40,-64 42,-57 130,-128 195,-158 22,-11 55,-26 74,-35 28,-14 65,-17 190,-16 155,0 156,0 220,32 59,30 123,75 163,114 10,10 37,29 60,44 52,33 138,113 138,129 0,6 5,16 11,22 42,42 67,263 35,306 -8,10 -22,48 -32,85 -10,39 -32,85 -51,111 -18,24 -33,50 -33,58 0,8 46,58 102,111 265,253 388,385 388,415 0,23 -36,49 -59,42 -11,-3 -31,-25 -44,-48 -29,-48 -129,-153 -302,-315 -66,-62 -129,-126 -140,-142 -30,-44 -42,-44 -72,2 l -28,41 30,21 c 39,28 251,207 295,248 58,54 160,186 160,206 0,16 15,20 118,31 64,7 173,16 242,21 69,5 132,11 140,14 20,8 232,24 246,19 7,-2 10,-77 10,-221 -1,-320 4,-401 28,-414 15,-8 17,-17 12,-56 -3,-25 -10,-60 -16,-77 -5,-16 -12,-43 -15,-58 -7,-33 -31,-45 -51,-25 -12,12 -13,27 -5,83 6,42 16,74 26,81 21,16 19,39 -7,70 -22,25 -23,33 -28,302 l -5,277 h -35 -35 v -205 c 0,-113 4,-233 8,-267 8,-55 7,-63 -7,-63 -35,0 -104,-45 -163,-107 -35,-36 -63,-69 -63,-73 0,-4 -13,-23 -30,-41 -16,-19 -30,-38 -30,-43 0,-5 -6,-17 -14,-25 -35,-41 -73,-131 -85,-208 -14,-87 -4,-194 24,-258 8,-16 16,-37 20,-45 34,-85 151,-209 245,-261 90,-48 242,-65 317,-34 19,8 44,15 54,15 11,0 47,13 82,29 104,49 134,61 150,61 20,0 142,114 189,177 82,112 122,234 110,337 -5,48 -5,49 15,35 10,-8 36,-33 57,-56 21,-24 43,-43 49,-43 6,0 18,-6 26,-13 37,-32 165,-45 249,-27 174,38 186,43 247,93 83,69 96,90 134,210 17,51 33,277 26,357 -6,60 -24,123 -46,160 -5,8 -13,24 -18,35 -18,39 -105,113 -149,126 -54,16 -115,-2 -145,-43 -24,-33 -62,-37 -77,-9 -13,25 -32,203 -22,212 4,4 48,9 97,12 83,3 145,11 295,37 66,12 77,4 89,-66 5,-27 14,-64 20,-81 6,-18 16,-48 22,-65 6,-18 15,-49 19,-68 9,-38 34,-109 49,-138 5,-9 17,-35 27,-57 11,-22 27,-48 37,-58 25,-26 21,-39 -18,-66 -74,-50 -98,-84 -134,-191 -22,-64 -26,-203 -7,-259 9,-27 16,-60 16,-73 0,-13 7,-32 15,-42 8,-11 15,-30 15,-42 0,-13 4,-25 9,-29 6,-3 20,-26 32,-51 39,-76 119,-156 195,-193 65,-32 75,-34 184,-35 100,-1 121,2 160,21 81,40 178,145 212,228 36,88 49,320 24,425 -27,112 -108,228 -188,270 -57,29 -149,27 -222,-5 -58,-26 -76,-25 -76,0 0,8 -7,31 -16,52 -33,77 -42,99 -59,143 -9,25 -23,57 -31,72 -8,14 -14,34 -14,45 0,10 -7,27 -15,37 -8,11 -15,28 -15,37 0,10 -6,30 -14,46 -42,84 -55,121 -49,141 7,30 24,28 58,-8 24,-25 36,-30 79,-30 28,-1 62,-7 76,-15 14,-8 35,-14 47,-15 12,0 34,-6 50,-14 15,-8 44,-21 63,-29 120,-51 108,-38 113,-114 5,-83 24,-176 46,-223 38,-83 132,-184 210,-229 40,-22 178,-51 244,-51 61,1 158,27 180,49 6,6 14,11 18,11 24,0 143,144 165,200 3,8 12,29 19,45 7,17 20,47 29,68 9,21 16,48 16,61 0,12 7,43 16,68 28,84 10,306 -32,391 -8,16 -14,35 -14,42 0,12 -14,44 -41,95 -5,8 -16,30 -25,48 -22,42 -77,84 -141,107 -50,18 -54,18 -115,0 -35,-10 -74,-24 -88,-31 -14,-6 -70,-34 -125,-60 -115,-57 -201,-117 -241,-170 -29,-37 -54,-95 -54,-125 0,-24 -16,-27 -105,-19 -76,7 -111,16 -180,45 -16,7 -39,16 -50,18 -11,3 -38,12 -59,20 l -39,14 2,149 c 1,89 -4,165 -11,189 -6,22 -11,61 -10,88 1,80 40,76 -663,79 -341,2 -666,1 -722,-1 -57,-3 -106,-1 -110,2 -16,17 170,177 206,177 14,0 23,8 27,25 14,57 -47,73 -112,29 -36,-24 -167,-153 -225,-221 l -25,-31 -290,-6 c -159,-4 -347,-14 -419,-22 -71,-7 -178,-14 -236,-14 -102,0 -107,1 -113,22 -3,13 -1,27 4,32 6,6 10,18 10,27 0,16 -164,241 -181,247 -5,2 -9,11 -9,19 0,17 7,17 255,-7 130,-12 401,-12 490,0 73,11 595,34 750,34 50,0 420,3 824,7 404,5 739,5 744,2 5,-3 -6,-20 -25,-37 -19,-17 -52,-53 -74,-81 -21,-27 -45,-56 -52,-64 -8,-8 -25,-32 -38,-53 -23,-36 -65.3192,-81.3192 -50.3192,-105.3192 -30.4979,-45.0341 27.3921,-21.6079 37.3921,-21.6079 15,0 138.9271,136.9271 138.9271,154.9271 0,8 61,86 80,101 8,7 28,13 43,13 32,0 51,33 35,63 -12,23 -4,34 29,40 146,27 251,152 209,247 -19,43 -33,59 -71,85 -74,51 -241,94 -432,112 -60,6 -66,18 -27,54 14,13 30,34 35,47 10,25 31,29 49,7 7,-8 19,-15 27,-15 9,0 37,-8 64,-17 47,-17 51,-17 102,1 93,33 131,89 131,197 1,74 0,77 -38,124 -91,110 -233,196 -356,213 -41,6 -75,6 -92,0 -16,-6 -39,-7 -52,-4 -36,9 -53,-2 -75,-47 -58,-121 -49,-198 31,-281 26,-27 48,-52 48,-55 0,-3 -13,-14 -30,-23 -16,-9 -48,-41 -71,-71 -36,-46 -46,-54 -63,-47 -39,15 -131,39 -161,42 -25,3 -30,7 -28,28 0,14 -3,204 -8,424 -5,219 -8,400 -7,402 2,2 24,-4 49,-13 57,-21 79,-13 79,26 0,41 -40,61 -120,61 -71,0 -76,6 -60,76 6,27 15,118 19,202 5,89 13,158 20,165 17,17 13,45 -8,59 -16,10 -18,20 -14,68 5,56 5,57 -33,88 -51,42 -109,44 -145,6 -13,-14 -34,-30 -46,-35 -40,-15 -45,-41 -15,-79 l 27,-35 v -258 -258 l -23,-6 c -12,-3 -56,-2 -96,2 -70,6 -75,5 -86,-15 -9,-17 -8,-26 5,-46 13,-20 24,-24 61,-24 h 46 l -3,-410 -4,-409 -70,5 c -38,2 -155,11 -258,19 -246,19 -456,19 -587,0 -249,-37 -311,-44 -410,-47 l -105,-3 -3,70 c -2,46 -8,75 -19,87 -23,26 -9,45 39,53 68,11 137,89 124,141 -13,49 -105,104 -177,104 -21,0 -40,4 -43,9 -3,4 -6,250 -6,546 -1,454 -3,542 -16,566 -15,30 -29,35 -54,19 -13,-8 -15,-83 -17,-557 l -2,-548 -33,-3 c -18,-1 -44,4 -58,11 -31,16 -33,34 -55,422 -9,154 -20,312 -25,350 -5,39 -9,131 -10,205 l -2,134 223,4 c 345,5 546,25 578,57 13,13 16,35 14,105 l -2,90 h 92 c 152,0 199,37 209,165 9,104 -7,374 -23,415 -51,127 -161,155 -669,171 -151,4 -304,12 -340,18 -93,15 -513,12 -571,-3 z m 651,-86 c 47,-5 189,-12 315,-15 127,-4 266,-13 310,-21 44,-7 92,-14 107,-14 38,0 94,-30 111,-60 26,-45 40,-394 18,-452 -9,-24 -14,-25 -138,-36 -135,-12 -202,-6 -243,20 -14,8 -70,21 -126,28 -103,13 -177,11 -464,-11 -85,-7 -230,-11 -322,-10 -116,2 -177,-1 -202,-10 -31,-11 -38,-11 -54,4 -23,21 -40,21 -64,0 -17,-15 -23,-15 -97,2 -44,11 -87,26 -98,35 -37,30 -53,86 -53,180 0,49 -5,101 -11,117 -15,40 -38,165 -32,179 11,28 82,44 196,44 62,0 128,5 147,11 19,6 71,14 115,19 90,9 456,3 585,-10 z m 363,-629 c 63,-10 71,-20 51,-60 -12,-25 -15,-47 -9,-95 l 6,-63 -188,-6 c -279,-10 -659,-8 -733,4 -36,5 -83,13 -105,16 -54,8 -115,56 -115,92 0,38 24,67 62,76 18,4 148,9 288,10 212,1 356,11 450,30 33,6 248,3 293,-4 z m 212,-75 c 11,-16 15,-41 13,-73 -3,-44 -5,-48 -31,-51 -25,-3 -28,0 -27,20 5,52 1,60 -27,56 -23,-2 -29,1 -31,20 -2,14 3,24 15,28 10,3 25,9 33,14 25,15 39,11 55,-14 z m 1285,-336 c 0,-46 -35,-48 -59,-3 -9,19 -8,24 11,37 27,20 48,5 48,-34 z m 14,-135 c 0,-22 -6,-87 -12,-144 -7,-57 -12,-145 -12,-197 v -94 h -32 -31 l 7,228 c 5,199 8,229 24,240 9,7 26,11 37,10 16,-2 20,-10 19,-43 z m -6,-539 c 22,-24 22,-29 32,-417 5,-217 6,-397 2,-400 -4,-3 -52,-4 -106,-1 l -99,5 7,181 c 9,208 9,375 0,530 -8,126 -8,126 81,126 50,0 64,-4 83,-24 z M 3090,4149 c 25,-6 70,-15 100,-19 78,-12 162,-38 172,-52 11,-18 6,-29 -25,-52 -26,-19 -42,-20 -246,-21 -121,0 -223,-3 -226,-7 -19,-19 -115,72 -115,108 0,18 10,24 58,37 68,18 219,21 282,6 z m 2538,-5 c 114,-50 149,-71 222,-136 l 80,-72 v -53 c 0,-46 -3,-55 -27,-70 -16,-10 -32,-23 -36,-30 -11,-18 -118,-17 -143,2 -10,8 -26,15 -34,15 -25,0 -83,33 -159,89 -106,79 -133,148 -90,231 l 21,40 h 65 c 38,0 80,-7 101,-16 z M 3240,3912 c 0,-5 -3,-12 -7,-16 -4,-4 -8,-44 -8,-89 v -82 l -57,-3 -58,-3 v 101 100 h 65 c 36,0 65,-4 65,-8 z m 2322,-142 c 8,-12 -3,-28 -42,-68 -42,-42 -59,-52 -86,-52 -18,0 -35,4 -38,9 -3,5 14,31 39,59 25,27 45,59 45,69 0,11 3,23 7,26 8,9 63,-23 75,-43 z m -1092,-71 c 63,-5 221,-14 350,-19 129,-5 253,-14 275,-19 22,-6 56,-11 76,-11 37,0 123,-33 134,-50 3,-6 25,-10 48,-10 23,-1 53,-7 67,-15 14,-8 44,-14 66,-15 23,0 61,-7 84,-15 23,-8 59,-15 79,-15 69,0 265,-48 329,-81 32,-17 72,-59 72,-77 0,-34 -90,-104 -150,-116 -39,-7 -337,-13 -1490,-27 -432,-5 -819,-13 -860,-18 -242,-31 -1022,5 -1118,51 -59,28 -31,145 55,239 l 55,59 h 72 c 65,0 101,6 266,45 138,33 189,38 405,45 229,7 367,19 500,44 84,17 513,20 685,5 z m 748,-935 233,-6 16,-27 c 9,-14 22,-31 29,-36 8,-7 13,-73 16,-219 l 3,-208 -95,6 c -122,8 -256,-4 -565,-50 -130,-19 -199,-19 -215,1 -12,14 -15,14 -36,0 -29,-19 -79,-19 -301,1 -98,8 -195,13 -215,10 -21,-4 -40,-2 -43,4 -4,6 -11,111 -16,233 -5,122 -11,234 -15,249 -5,23 -2,28 17,33 13,3 143,9 289,14 256,9 399,8 898,-5 z m 1445,-211 c 49,-27 76,-54 70,-69 -3,-8 -13,-14 -22,-14 -30,0 -129,-43 -186,-80 -16,-11 -40,-24 -51,-29 -12,-5 -41,-28 -64,-50 -44,-41 -66,-49 -98,-32 -9,6 -29,12 -44,16 -16,3 -28,11 -27,18 0,14 141,106 184,120 87,28 90,32 48,71 l -27,25 30,11 c 16,6 38,14 49,19 33,16 105,12 138,-6 z m -420,-140 c 8,-8 -73,-83 -90,-83 -7,0 -13,3 -13,8 1,12 37,52 48,52 5,0 12,7 16,15 6,15 28,20 39,8 z m 470,-35 c 2,-8 21,-13 43,-13 38,0 39,-1 45,-40 3,-22 11,-53 18,-70 20,-48 16,-302 -4,-351 -72,-166 -83,-187 -133,-249 -26,-33 -58,-65 -71,-71 -12,-7 -28,-17 -34,-23 -14,-14 -54,-14 -63,0 -3,6 -10,36 -15,67 -13,96 -52,210 -86,259 -28,39 -28,39 2,79 22,28 25,43 25,112 0,59 -4,83 -15,92 -8,7 -15,21 -15,30 0,18 74,79 121,100 24,11 34,17 114,65 45,27 61,30 68,13 z M 5687,2214 c -9,-9 -28,6 -21,18 4,6 10,6 17,-1 6,-6 8,-13 4,-17 z m 611,-4 c 99,-72 93,-204 -11,-250 -23,-10 -79,-21 -124,-25 -79,-7 -83,-6 -108,19 -41,41 -29,51 56,48 74,-4 74,-4 112,34 31,31 37,44 37,79 0,28 -7,50 -20,65 -25,29 -26,60 -2,60 11,0 38,-13 60,-30 z m -895,-27 c 8,-16 17,-45 21,-67 4,-21 11,-46 16,-55 5,-9 18,-45 30,-81 11,-36 25,-74 29,-85 5,-11 20,-47 32,-80 13,-33 43,-98 66,-144 24,-45 40,-87 37,-92 -9,-15 -34,-10 -41,9 -4,9 -9,19 -13,22 -12,10 -67,106 -75,131 -4,13 -11,29 -15,34 -4,6 -18,42 -30,80 -13,39 -27,75 -31,80 -3,6 -10,29 -14,52 -4,24 -10,45 -15,48 -5,3 -11,23 -15,45 -4,22 -11,42 -16,46 -5,3 -9,23 -9,45 0,47 22,53 43,12 z m 612,-24 c 50,-5 109,-9 133,-9 37,0 42,-3 42,-22 0,-46 -72,-90 -86,-53 -4,10 -20,15 -46,15 -43,0 -134,26 -158,45 -8,7 -23,15 -33,18 -31,11 -8,30 27,22 17,-4 72,-11 121,-16 z m -1650,-20 c 105,-6 197,-11 205,-12 16,-2 39,-95 40,-161 0,-22 8,-63 17,-92 13,-44 14,-58 4,-77 -23,-42 22,-100 99,-130 41,-15 49,-15 90,-1 56,19 86,46 95,87 4,18 9,35 10,40 1,4 3,12 4,17 2,20 32,9 41,-15 24,-63 -25,-136 -110,-165 -94,-33 -159,-22 -200,35 -37,52 -71,77 -96,72 -17,-3 -28,1 -35,15 -17,31 -59,20 -84,-22 -18,-32 -20,-51 -19,-227 0,-137 -3,-193 -11,-193 -6,0 -23,19 -38,43 -41,65 -145,161 -212,197 -53,28 -70,32 -140,33 -44,0 -90,-5 -102,-11 -19,-10 -24,-9 -42,14 -20,25 -21,39 -21,290 0,221 2,264 15,271 18,10 238,7 490,-8 z m 370,-21 c 16,-76 26,-159 25,-208 -3,-86 -5,-83 37,-77 21,4 42,2 50,-5 21,-17 15,-57 -13,-85 -22,-22 -31,-24 -67,-19 -61,10 -65,17 -65,109 0,45 -7,113 -16,150 -9,38 -16,88 -16,113 0,42 1,44 30,44 23,0 31,-5 35,-22 z m -2543,-42 c 18,-8 53,-22 78,-32 100,-41 130,-73 162,-174 31,-96 21,-130 -26,-95 -11,8 -32,15 -47,15 -17,0 -35,9 -47,24 -27,35 -191,174 -227,193 -16,8 -43,18 -58,22 -43,9 -37,24 18,43 62,21 104,22 147,4 z m -113,-166 c 42,-32 96,-76 121,-98 l 45,-40 -35,-14 c -41,-17 -90,-71 -90,-98 0,-9 -7,-23 -15,-30 -8,-7 -15,-23 -15,-36 0,-13 -6,-38 -14,-56 -22,-52 -46,-169 -46,-219 0,-60 32,-160 66,-207 15,-21 53,-57 86,-81 l 58,-43 v -58 c 0,-32 7,-89 16,-127 17,-75 12,-128 -14,-141 -29,-16 -173,5 -247,36 -69,28 -215,151 -215,181 0,5 25,35 56,67 30,33 69,78 86,101 17,24 39,45 49,48 29,10 51,52 39,75 -28,53 -94,8 -204,-137 -26,-35 -53,-63 -60,-63 -12,0 -28,43 -61,165 -12,47 -15,96 -13,225 3,175 0,167 49,153 9,-3 25,4 35,15 35,35 98,52 199,52 86,0 95,2 106,21 8,16 8,28 0,45 -10,23 -16,24 -93,24 -46,-1 -101,-7 -123,-15 -22,-8 -45,-15 -52,-15 -7,0 -32,-13 -56,-30 -66,-44 -84,-37 -52,20 8,14 14,35 15,47 0,41 74,194 115,239 5,6 19,22 30,35 19,22 27,24 90,21 66,-4 71,-6 144,-62 z m 3015,-41 c 51,-45 82,-94 66,-104 -6,-3 -16,-3 -22,2 -7,4 -33,10 -57,13 -38,4 -46,9 -52,32 -4,15 -16,37 -28,49 -31,33 -27,49 13,49 25,0 45,-10 80,-41 z m 1246,-9 c 4,-8 14,-30 23,-48 9,-19 17,-43 17,-53 0,-11 5,-30 12,-42 6,-12 15,-38 19,-57 4,-19 13,-49 20,-67 7,-18 10,-35 6,-39 -4,-4 -29,-7 -55,-6 -46,2 -80,13 -171,54 l -45,20 32,29 c 30,28 32,35 32,97 0,57 -3,69 -21,80 -34,22 -57,-8 -61,-77 -4,-69 -25,-79 -49,-23 -9,20 -24,56 -34,79 -9,23 -15,46 -11,51 3,5 27,7 53,5 26,-2 73,0 103,5 74,13 121,10 130,-8 z M 5109,1700 c 24,0 34,-7 46,-30 9,-16 22,-30 29,-30 21,0 26,-24 26,-126 0,-91 -25,-201 -51,-228 -5,-6 -9,-18 -9,-27 0,-37 -145,-159 -190,-159 -15,0 -47,-7 -70,-15 -82,-29 -222,-12 -285,35 -68,50 -115,162 -115,275 v 68 l 31,-7 c 26,-5 36,0 71,34 23,22 46,50 52,62 14,28 41,34 62,14 20,-20 114,-21 169,-1 50,18 75,18 99,0 11,-8 27,-15 36,-15 23,0 52,-51 79,-139 9,-32 32,-45 64,-37 31,7 37,45 12,66 -8,7 -15,18 -15,25 0,35 -65,145 -85,145 -7,0 -23,8 -36,19 -22,18 -22,19 -5,55 14,31 20,35 36,26 10,-5 32,-10 49,-10 z m -2711,4 c 30,-9 40,-49 17,-74 -10,-11 -23,-20 -29,-20 -15,0 -46,-36 -68,-80 -13,-25 -18,-57 -18,-120 0,-82 1,-86 34,-125 32,-38 37,-40 92,-40 37,0 59,-4 61,-12 7,-19 44,-16 59,5 7,9 14,32 14,51 0,24 11,47 42,83 39,47 43,49 56,32 20,-27 9,-171 -18,-222 -53,-102 -121,-142 -240,-142 -90,0 -115,10 -193,75 -70,59 -87,98 -87,204 0,81 10,136 42,226 5,17 12,41 15,55 8,36 60,98 86,103 35,7 110,7 135,1 z m 2201,-63 24,-19 -53,-56 c -29,-31 -59,-56 -66,-56 -22,0 -17,106 7,160 l 20,44 22,-27 c 12,-16 33,-36 46,-46 z m 1395,-113 c 34,-33 80,-115 101,-177 15,-45 17,-76 12,-190 -5,-142 -16,-192 -53,-251 -58,-92 -160,-161 -243,-164 l -34,-1 2,132 c 2,105 -1,143 -16,187 -21,63 -48,85 -82,67 -24,-13 -27,-33 -7,-64 18,-30 38,-189 30,-242 -9,-61 -22,-69 -70,-43 -80,42 -124,93 -194,222 -23,43 -20,66 8,66 45,0 143,58 154,92 3,9 15,10 52,1 61,-14 105,-2 146,38 l 30,30 10,-27 c 6,-14 21,-41 33,-58 40,-57 60,-100 62,-142 5,-72 39,-106 73,-72 16,16 15,100 -2,140 -8,18 -17,40 -20,48 -8,20 -25,47 -59,92 -22,29 -36,38 -59,38 -29,0 -30,2 -24,32 4,18 13,39 21,47 13,13 17,13 33,-2 29,-27 103,-23 131,7 19,20 21,28 12,45 -10,18 -20,20 -71,18 -55,-2 -61,0 -94,32 -20,19 -36,41 -36,48 0,7 -9,21 -20,30 -23,20 -26,39 -7,47 6,3 45,4 85,2 60,-4 77,-9 96,-28 z m -3534,-68 c 0,-10 5,-22 10,-25 6,-3 10,-25 10,-47 0,-45 -19,-67 -58,-68 -46,0 -67,115 -32,181 11,20 11,20 41,-1 16,-12 29,-30 29,-40 z m 92,39 c 22,-16 28,-28 26,-47 -5,-42 -34,-40 -53,4 -16,38 -19,64 -9,64 3,0 19,-9 36,-21 z m 1529,-2 c 55,-15 139,-66 139,-84 0,-9 -15,-13 -49,-13 -47,0 -141,-36 -156,-60 -3,-6 -15,-10 -26,-10 -17,0 -20,6 -18,43 1,23 -1,62 -6,86 -11,66 1,70 116,38 z m 1591,6 c 26,-23 23,-62 -4,-72 -47,-18 -93,35 -62,70 21,23 42,24 66,2 z m -217,-91 c -6,-68 -5,-84 14,-119 11,-23 32,-50 47,-62 33,-26 27,-43 -23,-65 -21,-9 -46,-21 -55,-26 -40,-22 -46,-13 -53,75 -4,48 -4,109 -1,138 8,63 42,137 63,137 12,0 13,-13 8,-78 z m -1828,52 c 3,-9 -2,-30 -13,-48 -11,-19 -20,-59 -24,-106 l -5,-75 -46,-8 c -33,-6 -59,-21 -95,-53 -27,-24 -52,-44 -56,-44 -5,0 -8,12 -8,26 0,15 22,55 58,102 33,42 64,87 70,99 7,12 18,27 25,35 7,7 25,30 41,51 31,40 43,46 53,21 z m 2159,-97 c -5,-74 -30,-121 -68,-130 -29,-7 -105,13 -141,37 -43,29 -85,145 -61,169 3,3 25,-14 47,-38 48,-49 84,-63 126,-45 27,11 35,21 61,85 11,29 12,29 27,10 11,-15 14,-36 9,-88 z m -1882,-24 c -11,-90 -40,-148 -85,-168 -36,-17 -39,-17 -86,5 -64,29 -85,66 -81,143 4,70 19,75 33,10 14,-65 33,-99 61,-112 48,-22 94,18 108,93 6,32 40,85 54,86 2,0 0,-26 -4,-57 z m 437,-58 c 5,-11 13,-27 17,-35 61,-110 58,-205 -13,-373 -14,-34 -18,-37 -32,-25 -9,7 -22,28 -30,46 -41,97 -157,236 -229,273 -47,24 -91,17 -106,-16 -17,-37 -4,-55 40,-55 33,0 45,-7 89,-53 53,-55 143,-179 143,-198 0,-6 13,-23 29,-38 l 30,-28 -59,-51 c -32,-28 -75,-59 -96,-68 -22,-9 -72,-32 -111,-51 -40,-19 -77,-32 -83,-28 -6,4 -10,63 -10,148 -1,144 -25,316 -49,340 -16,16 -14,54 4,60 27,11 75,89 75,123 0,57 8,65 36,37 20,-20 32,-24 57,-19 17,3 38,12 46,19 9,8 35,19 58,27 37,11 45,11 67,-4 34,-22 53,-20 66,5 11,20 12,20 32,2 11,-10 24,-27 29,-38 z M 2761,1180 c 9,-31 9,-53 -1,-102 -16,-77 -70,-179 -100,-190 -21,-8 -22,-6 -17,28 4,25 0,48 -13,73 l -18,37 35,34 c 37,36 73,105 73,139 0,36 29,23 41,-19 z m 892,-33 c 3,-7 30,-22 61,-32 68,-23 77,-33 99,-104 13,-40 17,-91 17,-203 0,-82 5,-169 11,-194 6,-25 8,-48 4,-52 -4,-4 -43,-6 -87,-4 -64,2 -92,9 -141,33 -34,16 -75,40 -90,53 -28,23 -29,24 -13,54 9,17 16,38 16,47 0,10 6,29 14,43 8,15 17,34 20,42 30,76 76,128 129,144 25,8 23,63 -3,71 -34,11 -76,-4 -113,-41 -39,-39 -107,-170 -107,-206 0,-32 -15,-52 -33,-45 -24,9 -87,165 -87,215 0,23 58,83 153,158 35,27 51,33 93,33 34,1 54,-4 57,-12 z M 2558,968 c 7,-7 12,-29 12,-49 0,-20 7,-42 15,-49 18,-15 20,-40 3,-40 -6,0 -45,-26 -87,-58 -164,-125 -165,-125 -168,11 -1,56 -6,115 -12,130 -16,42 -6,49 63,43 42,-4 70,-2 91,8 38,18 68,19 83,4 z"
       id="path841"
       sodipodi:nodetypes="cccccsssccccccccccsccccccsccccccccccccssccccccccscccccccccccsccccccccccccscccscccccccsscccscsccccccccscscccccccssccccccscscscsccccccscsccccscccccccccccccccccccccccscscccccccccssccscsscccscccccccssccssccscccccccscccccccccccsccccccscsscsccscssccccsscsccccccccscccccccccsccccccccssccsccccccccccccssccccccccccccscccccccccccccsccsccccccccsccccccccccccsscsscccccccccscccccccccccccsccsccscccccccccsccccscccccccscccccssccscccscssscccccssccsscscccscsccscsscsccccccscccccccccccccccccsccccccscccccccccccccscscccscccccsccccscscscscsscccscsscscccsccccscccccccsscsccsscscccccscccccccccccccccscccccsccccccscscsscccccscccccccccssscscccscccscccccsccccscccsscccccccccccccscscscsssccccscscccscsscsscssccscccscccscccsscccsccscscsccscccscscccccccscccccccccccccccccscccccccscccscscccccsccccscscccscccsccsscsccccccccccccccsccccccsssccccccccscccccccccsccccsccccccscscccccscscssccccccscccccccsccccsssccccsccccsscscccsscscccccs" />
    <path
       d="m 3347,6059 c -24,-33 -8,-73 31,-77 25,-3 33,2 45,25 14,25 13,30 -3,51 -23,28 -54,28 -73,1 z"
       id="path843" />
    <path
       d="m 2682,6044 c -12,-8 -22,-25 -22,-38 0,-26 28,-56 53,-56 35,0 60,54 39,86 -13,20 -47,24 -70,8 z"
       id="path845" />
    <path
       d="m 3071,5929 c -21,-28 -26,-30 -61,-24 -49,8 -76,0 -83,-25 -8,-32 16,-52 73,-61 57,-9 85,0 128,41 37,35 25,100 -18,100 -9,0 -26,-14 -39,-31 z"
       id="path847" />
    <path
       d="m 6487,2132 c -10,-10 -17,-23 -17,-29 0,-21 38,-43 76,-43 66,0 129,-54 147,-126 10,-40 17,-50 36,-52 30,-5 41,12 41,66 0,29 -7,53 -22,75 -37,52 -50,63 -109,96 -65,36 -126,42 -152,13 z"
       id="path849" />
    <path
       d="m 4661,1523 c -8,-8 -18,-52 -22,-97 -10,-95 -27,-161 -53,-198 -37,-55 16,-95 61,-45 38,40 50,81 63,199 12,110 12,119 -5,138 -22,24 -26,24 -44,3 z"
       id="path851" />
    <path
       d="m 4782,1508 c -17,-17 -15,-31 13,-84 14,-26 25,-56 25,-68 0,-12 7,-43 15,-70 8,-27 15,-71 15,-97 0,-39 4,-51 21,-59 16,-9 26,-8 45,5 26,17 30,41 14,95 -6,19 -14,60 -19,90 -22,138 -86,231 -129,188 z"
       id="path853" />
    <path
       d="m 7590,5950 c -24,-24 -24,-29 -4,-58 20,-29 73,-30 97,-2 22,26 21,31 -3,58 -26,27 -64,28 -90,2 z"
       id="path855" />
    <path
       d="m 7754,4342 c -13,-11 -27,-45 -38,-97 -11,-44 -28,-99 -39,-123 -17,-38 -24,-69 -26,-120 -1,-7 -11,-17 -23,-23 -65,-29 -138,-88 -138,-112 0,-7 9,-22 19,-31 16,-15 35,-17 108,-14 l 88,3 8,-95 c 12,-152 54,-183 108,-81 16,30 29,58 29,64 0,20 34,87 44,87 6,-1 24,-21 39,-45 24,-38 33,-45 61,-45 27,0 36,6 51,35 18,32 18,36 2,70 -9,20 -17,42 -17,50 0,8 -9,32 -20,52 -11,21 -20,43 -20,48 0,12 84,75 100,75 19,0 42,49 36,75 -10,38 -46,51 -104,37 -42,-10 -98,-16 -127,-13 -22,2 -45,60 -45,114 0,44 -5,59 -25,81 -28,30 -42,32 -71,8 z m 58,-227 27,-45 h 60 c 33,0 62,-4 65,-8 3,-5 -8,-22 -24,-37 -33,-32 -41,-84 -15,-105 17,-14 20,-40 6,-40 -5,0 -21,4 -35,10 -32,12 -62,-12 -74,-60 -5,-20 -15,-35 -23,-35 -9,0 -15,13 -17,35 -1,19 -8,46 -15,59 -10,20 -16,22 -54,17 -24,-3 -43,-2 -43,3 0,11 30,35 63,49 31,13 34,32 10,68 -15,24 -15,27 0,54 9,15 17,40 17,54 0,39 22,31 52,-19 z"
       id="path857" />
  </g>
  <path
     style="fill:#ffff00;fill-opacity:0.419608;stroke:#00ffff;stroke-width:1.54329;stroke-opacity:0"
     d="m 397.95073,620.85757 -22.32165,-1.41781 -0.89035,-6.72783 c -0.48968,-3.70033 -1.36207,-16.30947 -1.93862,-28.02034 l -1.04828,-21.29248 15.12554,-0.95978 c 19.35101,-1.22791 116.83893,-1.2366 143.67836,-0.0127 l 20.50919,0.93516 2.94053,4.53078 c 2.34483,3.61298 3.11223,8.96461 3.78826,26.41827 l 0.84776,21.88747 -15.32004,-0.49106 c -9.52079,-0.30516 -25.51497,0.71011 -42.25229,2.68208 -38.20713,4.50153 -48.46766,5.10358 -51.2902,3.00948 -1.72566,-1.28029 -3.248,-1.33296 -5.62719,-0.19468 -3.69687,1.76869 -14.13242,1.69044 -46.20102,-0.34648 z"
     id="path880" />
  <path
     style="fill:#ffff00;fill-opacity:0.419608;stroke:#00ffff;stroke-width:1.12025;stroke-opacity:0"
     d="m 238.44918,625.07163 c 1.43459,-2.52021 1.62978,-7.54456 1.13099,-29.11131 l -0.60283,-26.06538 9.34369,-0.66713 c 16.11556,-1.15061 111.92596,-5.19582 112.42823,-4.74683 0.89071,0.79628 2.13511,50.28395 1.33597,53.13032 l -0.79332,2.82565 -13.30673,0.0135 c -13.25387,0.0134 -39.81699,1.76426 -71.36322,4.70382 -9.12317,0.85011 -21.83436,1.86463 -28.2471,2.25449 l -11.65951,0.70883 z"
     id="path888" />
  <path
     style="fill:#ff9955;fill-opacity:0.419608;stroke:#00ffff;stroke-width:0.67378;stroke-opacity:0"
     d="m 233.91787,559.05581 c -3.22392,-0.69986 -3.81883,-2.12639 -2.35708,-5.65213 l 1.24875,-3.01201 -2.22905,-3.21783 C 227.0401,542.063 216.3756,529.17037 212.28477,525.0556 c -2.0577,-2.06975 -3.74129,-4.00559 -3.74129,-4.30186 0,-1.03232 2.91856,-1.20516 10.51982,-0.62298 4.20866,0.32233 13.10371,1.01146 19.76673,1.53137 15.97637,1.24665 49.98499,1.2493 65.7052,0.005 34.84745,-2.75797 84.185,-3.8306 208.29783,-4.52853 78.28238,-0.44021 80.14396,-0.42276 79.10134,0.74173 -0.58726,0.6559 -2.78647,2.76958 -4.88712,4.69706 -9.02584,8.28172 -23.67535,25.83496 -24.74709,29.65227 -0.4454,1.58643 -0.68364,1.68638 -3.06126,1.28427 -1.41806,-0.23983 -42.50307,-0.62512 -91.30004,-0.85621 l -88.72179,-0.42015 5.34468,-5.00392 c 6.15479,-5.76239 16.31366,-12.82607 19.9535,-13.87411 3.35741,-0.96671 4.03007,-1.52442 4.52913,-3.75513 1.24706,-5.57407 -5.30174,-7.72932 -12.85387,-4.23029 -3.48534,1.61483 -17.85322,13.62335 -25.98941,21.72168 l -7.29998,7.26604 -7.16345,0.35105 c -3.93991,0.19309 -16.14253,0.51092 -27.11695,0.7063 -21.61812,0.38489 -38.04129,1.1194 -57.00997,2.54973 -14.79082,1.11528 -34.89174,1.69484 -37.69291,1.08675 z"
     id="path890" />
  <path
     style="fill:#ff0000;fill-opacity:0.419608;stroke:#00ffff;stroke-width:0.67378;stroke-opacity:0"
     d="m 244.17472,511.71605 c -34.35107,-1.14373 -64.23975,-3.82274 -71.47422,-6.40645 -7.9717,-2.847 -3.90271,-16.0113 8.65912,-28.01463 l 5.24057,-5.00757 h 8.04243 c 8.73364,0 13.4972,-0.66683 32.30559,-4.52234 18.30159,-3.75161 23.63713,-4.30054 52.14512,-5.36489 28.44483,-1.06198 44.6706,-2.23419 57.54681,-4.15743 12.86268,-1.92121 33.89152,-2.71018 60.7489,-2.27919 13.1301,0.21069 27.88143,0.65635 32.78072,0.99032 4.8993,0.33397 19.32995,1.0578 32.06812,1.60849 27.23597,1.17748 42.14926,2.11443 45.60798,2.86543 1.3718,0.29786 4.68133,0.72312 7.3545,0.94501 5.32737,0.44222 12.33519,2.55509 16.62011,5.01098 1.90494,1.09182 4.17083,1.68396 7.38088,1.92883 2.54763,0.19434 5.85066,0.80966 7.34007,1.36741 1.4894,0.55774 5.33758,1.30263 8.5515,1.6553 3.21391,0.35267 8.08826,1.19245 10.83185,1.86619 2.74361,0.67373 7.23314,1.40005 9.97675,1.61406 11.15174,0.86984 32.96187,5.60568 39.72018,8.62484 4.41653,1.97299 9.81319,6.85339 9.78161,8.84584 -0.0458,2.89158 -6.69444,8.3174 -13.71031,11.18876 -3.90921,1.5999 -4.58955,1.659 -25.60469,2.22428 -11.87383,0.31939 -46.76225,0.88107 -77.52982,1.24819 -164.3499,1.96098 -183.7484,2.3165 -208.79905,3.82679 -11.30657,0.68167 -34.07895,0.65781 -55.58472,-0.0582 z"
     id="path892" />
  <path
     style="fill:#ffff00;fill-opacity:0.419608;stroke:#00ffff;stroke-width:1.32187;stroke-opacity:0"
     d="m 638.17361,208.72314 c 0.41624,-1.89035 1.55393,-5.80251 2.5282,-8.69368 2.17308,-6.44869 1.0101,-7.89744 -11.31443,-14.09454 -4.63656,-2.33139 -8.43011,-4.64087 -8.43011,-5.13219 0,-1.46258 8.51485,-3.67984 17.29883,-4.5046 6.78016,-0.63662 8.43709,-0.4104 9.50649,1.29789 1.68786,2.6962 5.74298,2.63981 8.50703,-0.11829 1.20553,-1.20296 4.22173,-5.99872 6.70268,-10.65724 2.48094,-4.65853 5.02056,-8.75169 5.64359,-9.09591 0.62302,-0.34422 1.50546,1.49884 1.96098,4.09569 0.45552,2.59686 1.12559,6.37941 1.48906,8.40566 1.18248,6.59221 4.15727,9.20864 11.42875,10.05198 15.05642,1.74623 16.05396,2.67117 7.51039,6.96373 -6.57094,3.30143 -8.53244,6.76403 -8.53244,15.06207 v 6.27359 l -6.89961,-6.33239 c -4.49799,-4.1282 -8.06439,-6.33239 -10.24588,-6.33239 -4.03174,0 -13.91523,5.67771 -20.52731,11.79219 -5.78117,5.34612 -7.6421,5.63213 -6.62622,1.01843 z"
     id="path894" />
  <path
     style="fill:#ffff00;fill-opacity:0.419608;stroke:#00ffff;stroke-width:1.32187;stroke-opacity:0"
     d="m 118.64818,72.180625 c -0.39887,-1.031101 -1.48875,-4.518064 -2.422,-7.748796 -2.36383,-8.183286 -5.67878,-10.666541 -11.65856,-8.733523 -5.437912,1.757846 -10.685162,1.93668 -10.685162,0.364165 0,-1.971378 9.784642,-8.878194 12.577442,-8.878194 2.78045,0 4.01465,-2.798197 6.57208,-14.900407 0.64235,-3.039729 1.78685,-5.692455 2.54333,-5.894945 0.75646,-0.20249 3.41569,2.05328 5.90939,5.012821 2.4937,2.959541 6.6449,6.397231 9.2249,7.639313 4.37935,2.108337 5.12285,2.126755 11.19437,0.277364 7.18352,-2.188102 8.11762,-1.236857 3.7073,3.775368 -4.2961,4.882435 -3.53529,9.267795 2.79616,16.117211 9.32069,10.083203 7.26523,10.108237 -6.06483,0.07382 -5.04984,-3.801322 -7.28164,-4.691077 -10.97231,-4.37436 -4.30165,0.369163 -4.83778,0.93398 -7.49546,7.8965 -4.48831,11.758352 -4.3796,11.563397 -5.22665,9.373632 z"
     id="path896" />
  <path
     style="fill:#ffff00;fill-opacity:0.419608;stroke:#00ffff;stroke-width:1.32187;stroke-opacity:0"
     d="m 843.96404,439.6988 c -1.1836,-6.26274 -3.5297,-8.01024 -9.39337,-6.99647 l -4.60101,0.79548 3.09645,-2.24721 c 1.70307,-1.23595 4.53419,-3.18988 6.29137,-4.34206 3.09514,-2.02945 3.12187,-2.2128 0.85548,-5.87091 -2.19852,-3.54871 -2.18836,-4.13173 0.16886,-9.68318 l 2.50828,-5.90713 3.86167,5.21651 c 3.73038,5.03928 4.11506,5.21649 11.32309,5.21649 h 7.4615 l -3.453,4.54878 c -3.97123,5.23134 -4.28607,7.73701 -1.40045,11.14752 3.02906,3.58011 2.70913,3.90199 -3.76087,3.78374 -5.48944,-0.10037 -6.07733,0.22019 -8.39953,4.57895 -1.37335,2.57775 -2.75121,4.68681 -3.06211,4.68681 -0.31078,0 -0.98414,-2.21729 -1.49636,-4.92732 z"
     id="path898" />
  <path
     style="fill:#00ffff;fill-opacity:0.419608;stroke:#00ffff;stroke-width:2.00033;stroke-opacity:0"
     d="m 318.23137,230.81063 c -9.8359,-3.60869 -32.74705,-3.87483 -100.49337,-1.16735 -23.85395,0.95331 -44.82347,1.10151 -46.59893,0.32932 -1.77546,-0.7722 -4.96061,-0.53724 -7.07812,0.52211 -5.37994,2.69149 -22.01686,-1.7122 -25.64603,-6.78832 -1.56083,-2.18313 -3.8471,-11.20354 -5.08058,-20.04535 -1.2335,-8.8418 -2.84188,-19.14162 -3.57418,-22.88849 -1.08376,-5.54504 -0.60061,-7.07563 2.59692,-8.2269 7.60588,-2.73849 52.93299,-5.76251 83.26527,-5.55507 41.41238,0.28321 116.83926,3.96169 131.13325,6.39519 17.33441,2.95114 17.90755,3.91529 18.72673,31.50247 0.38869,13.08908 -0.1703,24.58236 -1.24227,25.54062 -1.07193,0.95825 -9.95832,2.13475 -19.74753,2.61445 -13.42866,0.65802 -19.8763,0.10985 -26.26116,-2.23268 z M 255.65586,217.9215 c 6.62729,-3.06368 9.09281,-8.31178 6.12902,-13.04618 -2.4307,-3.88281 -7.81418,-4.03614 -9.43141,-0.26863 -0.73898,1.72153 -3.93826,2.83694 -8.13715,2.83694 -8.44116,0 -13.4287,4.33625 -9.65853,8.39729 2.18038,2.34859 4.94457,3.29189 13.43329,4.58421 0.93048,0.14166 4.37964,-0.98497 7.66478,-2.50363 z m -45.49567,-13.51716 c 1.98449,-0.68076 3.34652,-3.37491 3.34652,-6.61953 0,-4.81863 -0.75739,-5.47154 -6.34696,-5.47154 -5.21247,0 -6.34695,0.77753 -6.34695,4.34998 0,2.39248 1.14245,5.37128 2.53878,6.61953 2.96685,2.65223 2.54779,2.5832 6.80861,1.12156 z m 86.91468,-9.25414 c 0,-4.78294 -0.82598,-5.67387 -5.26015,-5.67387 -3.39234,0 -5.52179,1.21448 -5.99697,3.42024 -1.23607,5.73776 1.38183,9.18112 6.48744,8.53301 3.7387,-0.47461 4.76968,-1.83191 4.76968,-6.27938 z"
     id="path900" />
  <path
     style="fill:#00ffff;fill-opacity:0.419608;stroke:#00ffff;stroke-width:2.00033;stroke-opacity:0"
     d="m 186.23585,260.24608 c -15.4714,-2.71633 -23.17616,-13.0668 -12.39758,-16.65473 7.94036,-2.64316 133.29602,-6.34361 135.35736,-3.9957 0.45662,0.52011 0.44846,5.33465 -0.0181,10.699 -0.70086,8.05744 -1.64288,9.94388 -5.41766,10.84912 -7.08563,1.69922 -107.08319,0.93541 -117.52397,-0.89769 z"
     id="path902" />
  <path
     style="fill:#00ffff;fill-opacity:0.419608;stroke:#00ffff;stroke-width:2.24775;stroke-opacity:0"
     d=""
     id="path904"
     transform="scale(0.75)" />
  <path
     style="fill:#ffffff;fill-opacity:0.419608;stroke:#00ffff;stroke-width:2.00033;stroke-opacity:0"
     d="m 325.63614,254.72601 c 0,-2.18992 -1.41043,-3.78259 -3.34978,-3.78259 -4.91589,0 -2.38592,-4.62571 2.91181,-5.32384 3.33708,-0.43976 4.86819,0.6456 5.85149,4.14793 1.40002,4.98659 -0.0701,8.74109 -3.42273,8.74109 -1.09492,0 -1.99079,-1.70216 -1.99079,-3.78259 z"
     id="path906" />
  <path
     style="fill:#ffffff;fill-opacity:0.419608;stroke:#00ffff;stroke-width:2.00033;stroke-opacity:0"
     d="m 317.17355,229.78164 c -6.64894,-2.52558 -43.02258,-2.87623 -111.74082,-1.07723 -59.47553,1.55704 -63.52856,0.96991 -67.73306,-9.81211 -2.70792,-6.94422 -7.79721,-43.25323 -6.25576,-44.63122 8.65773,-7.73962 187.01041,-6.80953 220.06651,1.14764 4.34727,1.04645 8.8724,3.51997 10.05578,5.49668 1.18341,1.97671 2.15163,13.7637 2.15163,26.19331 0,21.83754 -0.16045,22.63774 -4.7602,23.73971 -7.69192,1.84275 -36.03806,1.12584 -41.78408,-1.05678 z m -57.97799,-13.50306 c 4.58102,-3.52256 5.44351,-5.4154 4.30896,-9.45647 -1.06048,-3.77723 -2.7432,-5.05236 -6.66731,-5.05236 -2.88685,0 -5.24881,0.75004 -5.24881,1.66676 0,0.91673 -4.28419,2.63115 -9.52042,3.80983 -7.346,1.65358 -9.52044,3.01468 -9.52044,5.95936 0,7.80814 17.81787,9.86279 26.64802,3.07288 z m -46.08373,-17.8186 c 0.61758,-5.72604 0.21941,-6.14671 -5.81804,-6.14671 -5.70595,0 -6.48099,0.64083 -6.48099,5.35867 0,6.51291 1.65995,8.21135 7.31771,7.48735 3.16297,-0.40475 4.49575,-2.19719 4.98132,-6.69931 z m 83.96304,-3.30978 c 0,-4.78294 -0.82598,-5.67387 -5.26015,-5.67387 -3.39234,0 -5.52179,1.21448 -5.99697,3.42024 -1.23607,5.73776 1.38183,9.18112 6.48744,8.53301 3.7387,-0.47461 4.76968,-1.83191 4.76968,-6.27938 z"
     id="path908" />
  <path
     style="fill:#ffffff;fill-opacity:0.419608;stroke:#00ffff;stroke-width:2.00033;stroke-opacity:0"
     d="m 180.35179,257.64284 c -9.15955,-3.56183 -12.75877,-9.63844 -7.26555,-12.26656 4.45322,-2.13056 74.06791,-5.71293 111.82364,-5.75446 l 23.80106,-0.0261 v 6.74388 c 0,14.67347 2.72188,14.06934 -63.01501,13.98634 -45.0426,-0.0568 -60.19014,-0.67883 -65.34414,-2.68303 z"
     id="path910" />
  <path
     style="fill:#ffffff;fill-opacity:0.419608;stroke:#00ffff;stroke-width:2.00033;stroke-opacity:0"
     d="m 318.15882,230.04327 c -1.27551,-1.8611 -18.30784,-2.67807 -51.76088,-2.48277 -118.66356,0.69275 -117.04444,0.72194 -122.03137,-2.19911 -2.66224,-1.55938 -5.41108,-5.16496 -6.10855,-8.01238 -0.69747,-2.84743 -1.75109,-6.45377 -2.34137,-8.01408 -0.59028,-1.56032 -1.45702,-7.94344 -1.92606,-14.18473 -0.46906,-6.24126 -1.35802,-13.28139 -1.97551,-15.64471 -0.7431,-2.84421 -0.0322,-4.60261 2.10278,-5.20106 1.774,-0.49726 4.89152,-1.38974 6.92783,-1.98328 13.68114,-3.98778 190.54889,-2.63991 198.59718,1.51345 1.02335,0.52811 5.33514,1.52005 9.58176,2.2043 4.24658,0.68426 8.6737,2.28543 9.83801,3.55817 3.03048,3.31271 5.37509,29.53083 3.64593,40.77005 l -1.46586,9.52775 -21.18503,0.59497 c -11.65177,0.32725 -21.50624,0.12629 -21.89886,-0.44657 z m -60.96322,-13.0175 c 4.89979,-2.66375 6.4096,-4.81229 6.24541,-8.88751 -0.28824,-7.15404 -4.92911,-7.7277 -19.33506,-2.38995 -11.39146,4.2208 -14.2468,7.99197 -9.35929,12.3612 3.62603,3.24149 15.55199,2.66576 22.44894,-1.08374 z m -44.08377,-18.56579 c 0.61758,-5.72604 0.21941,-6.14671 -5.81804,-6.14671 -6.01941,0 -6.481,0.4804 -6.481,6.74516 0,6.24257 0.43351,6.70056 5.81805,6.1467 4.84791,-0.49865 5.92858,-1.62337 6.48099,-6.74515 z m 83.96304,-3.30978 c 0,-4.78294 -0.82598,-5.67387 -5.26016,-5.67387 -3.39233,0 -5.52178,1.21448 -5.99696,3.42024 -1.23608,5.73776 1.38183,9.18112 6.48744,8.53301 3.7387,-0.47461 4.76968,-1.83191 4.76968,-6.27938 z"
     id="path863" />
  <path
     style="fill:#ffffff;fill-opacity:0.419608;stroke:#00ffff;stroke-width:2.00033;stroke-opacity:0"
     d="m 203.50657,258.7653 c -20.43113,-1.03424 -24.38621,-1.77062 -28.28911,-5.267 -5.57576,-4.99498 -3.73323,-8.22876 4.68856,-8.22876 3.49082,0 5.90449,-0.63832 5.3637,-1.41847 -0.54079,-0.78016 6.78134,-1.41848 16.27142,-1.41848 9.49007,0 37.48558,-0.67027 62.21223,-1.48949 l 44.95757,-1.48951 v 6.32908 c 0,12.6099 -1.22938,12.99506 -43.47844,13.62173 -20.88574,0.30979 -48.66241,0.0222 -61.72593,-0.6391 z"
     id="path865" />
  <path
     style="fill:#ffff00;fill-opacity:0.419608;stroke:#00ffff;stroke-width:2.24775;stroke-opacity:0"
     d=""
     id="path867"
     transform="scale(0.75)" />
  <path
     style="fill:#ffff00;fill-opacity:0.419608;stroke:#00ffff;stroke-width:2.24775;stroke-opacity:0"
     d="M 319.85784,798.98572 V 761.2415 l 14.61039,-1.29329 c 22.90175,-2.02722 143.804,-6.72149 144.89948,-5.62601 0.54037,0.54037 1.2853,16.62621 1.65539,35.7463 l 0.67291,34.76382 -29.22078,1.57021 c -29.72336,1.59722 -113.60241,7.90719 -125.87413,9.46913 l -6.74326,0.85828 z"
     id="path869"
     transform="scale(0.75)" />
  <path
     style="fill:#ffff00;fill-opacity:0.419608;stroke:#00ffff;stroke-width:2.24775;stroke-opacity:0"
     d="m 518.42494,826.53445 -17.21713,-0.76005 -1.39623,-21.82469 c -0.76793,-12.00358 -1.95757,-28.49461 -2.64366,-36.64673 l -1.24742,-14.82205 20.76803,-1.47416 c 26.85994,-1.90657 147.51978,-1.90386 187.30515,0.004 30.53504,1.46443 30.85505,1.5352 33.94287,7.50643 1.83565,3.54974 3.75121,17.49686 4.65924,33.92373 l 1.542,27.89565 -27.82428,0.31328 c -15.30336,0.1723 -41.47939,1.88503 -58.16895,3.80606 -28.23284,3.24971 -91.7735,4.19486 -139.71962,2.0783 z"
     id="path871"
     transform="scale(0.75)" />
  <path
     style="fill:#ff0000;fill-opacity:0.419608;stroke:#00ffff;stroke-width:2.24775;stroke-opacity:0"
     d="m 291.80677,679.77766 c -29.99299,-1.96698 -59.60965,-5.70772 -63.31352,-7.99684 -3.19625,-1.97539 -2.15024,-13.05631 1.7901,-18.96335 2.03897,-3.05667 7.30169,-9.35067 11.69493,-13.98666 7.25909,-7.66018 9.06654,-8.42907 19.81448,-8.42907 6.50472,0 22.23038,-2.05374 34.94592,-4.56387 12.71554,-2.51014 38.29149,-5.56606 56.83545,-6.79094 18.54395,-1.22489 47.87712,-3.29137 65.18481,-4.59218 80.25409,-6.03175 91.60731,-6.35338 147.22778,-4.17086 86.79844,3.40592 119.83507,6.07665 134.37758,10.86331 16.91058,5.56611 28.60157,8.06558 69.044,14.76125 41.56638,6.88174 48.62131,8.87434 57.31229,16.18733 8.01285,6.74237 6.78574,9.61853 -7.13342,16.71955 -10.68593,5.45155 -23.82442,5.96044 -231.12293,8.95204 -84.68407,1.2221 -179.25824,2.62145 -210.16484,3.10967 -30.90659,0.48821 -69.82828,-0.007 -86.49263,-1.09938 z"
     id="path875"
     transform="scale(0.75)" />
  <path
     style="fill:#ff6600;fill-opacity:0.419608;stroke:#00ffff;stroke-width:2.24775;stroke-opacity:0"
     d="m 310.3384,739.20993 c 1.31467,-6.84665 -4.46016,-15.77499 -22.73689,-35.15304 -4.35111,-4.61329 -7.47108,-8.82526 -6.93328,-9.35992 0.5378,-0.53466 13.62143,0.0598 29.07473,1.32104 27.32359,2.23003 50.25373,1.88844 171.95305,-2.56157 32.14286,-1.17533 113.92047,-2.18835 181.72803,-2.25117 l 123.28647,-0.11421 -16.09081,17.22988 c -8.84996,9.47644 -17.44246,19.8442 -19.09445,23.03947 l -3.00365,5.80957 -119.92628,-0.67942 -119.92628,-0.67942 10.11185,-9.11297 c 5.56152,-5.01215 13.96971,-11.08112 18.68489,-13.48662 6.57083,-3.35219 8.40886,-5.52732 7.87016,-9.3135 -0.89368,-6.28088 -10.17211,-7.67541 -19.38158,-2.91301 -3.63803,1.88129 -14.57867,10.90777 -24.31259,20.05885 l -17.69801,16.63832 -61.81319,2.60826 c -33.99725,1.43454 -73.34081,3.24876 -87.43013,4.03159 l -25.61695,1.42332 z"
     id="path877"
     transform="scale(0.75)" />
</svg>
