<?xml version="1.0" standalone="no"?>
<!DOCTYPE svg PUBLIC "-//W3C//DTD SVG 20010904//EN"
 "http://www.w3.org/TR/2001/REC-SVG-20010904/DTD/svg10.dtd">
<svg version="1.0" xmlns="http://www.w3.org/2000/svg"
 width="300.000000pt" height="235.000000pt" viewBox="0 0 300.000000 235.000000"
 preserveAspectRatio="xMidYMid meet">
<metadata>
Created by potrace 1.10, written by Peter Selinger 2001-2011
</metadata>
<g transform="translate(0.000000,235.000000) scale(0.050000,-0.050000)"
fill="#ffffff" stroke="none">
<path d="M2540 4266 c-161 -18 -722 -154 -870 -211 -554 -213 -805 -909 -673
-1865 105 -756 501 -1194 1166 -1290 158 -23 395 -61 527 -84 369 -65 601 -60
800 18 88 34 214 77 280 96 189 52 445 184 537 277 133 134 668 856 736 993
225 449 -39 1240 -530 1588 -518 368 -1289 554 -1973 478z m760 -127 c461 -72
1048 -333 1277 -567 454 -462 550 -1100 230 -1524 -664 -881 -653 -871 -1048
-989 -82 -25 -216 -72 -299 -105 -187 -75 -394 -80 -740 -18 -126 23 -333 56
-460 74 -126 17 -258 36 -293 41 -35 6 -74 23 -86 38 -13 16 -50 34 -83 41
-126 28 -409 295 -496 468 -186 370 -285 1296 -175 1622 94 276 261 519 441
641 301 205 1240 356 1732 278z"/>
<path d="M3322 3413 c-23 -28 -11 -93 17 -93 68 0 85 -132 42 -338 -43 -211
-37 -262 31 -262 38 0 61 54 77 185 18 145 33 144 98 -5 39 -91 62 -120 93
-120 74 0 68 59 -27 250 -96 193 -100 235 -29 286 47 34 46 77 -4 104 -43 23
-108 1 -127 -45 -8 -17 -22 -11 -45 20 -37 51 -92 58 -126 18z"/>
<path d="M2166 3346 c-8 -20 15 -88 58 -170 l71 -137 -72 -152 c-68 -143 -70
-153 -35 -178 53 -39 83 -18 131 92 51 119 50 119 100 20 47 -91 65 -106 109
-89 49 19 38 80 -38 210 -75 129 -61 240 33 265 87 22 60 173 -32 173 -40 0
-60 -20 -99 -95 l-49 -95 -42 95 c-45 100 -109 129 -135 61z"/>
<path d="M3610 2331 c-88 -14 -290 -55 -450 -91 -210 -47 -348 -66 -500 -69
-180 -4 -211 -9 -217 -39 -24 -125 268 -125 787 0 110 26 209 48 220 48 12 0
18 -51 14 -125 -9 -190 16 -285 77 -285 l49 0 0 218 c0 157 7 221 25 227 15 5
25 -9 25 -32 0 -22 10 -47 22 -54 79 -49 -22 -471 -115 -485 -81 -12 -227 244
-227 397 0 69 -45 97 -92 57 -119 -98 131 -578 300 -578 195 0 384 503 246
655 -63 70 -14 92 74 34 55 -36 112 1 112 72 0 80 -82 92 -350 50z"/>
</g>
</svg>
