<?xml version="1.0" encoding="UTF-8" standalone="no"?>
<svg
   xmlns:dc="http://purl.org/dc/elements/1.1/"
   xmlns:cc="http://creativecommons.org/ns#"
   xmlns:rdf="http://www.w3.org/1999/02/22-rdf-syntax-ns#"
   xmlns:svg="http://www.w3.org/2000/svg"
   xmlns="http://www.w3.org/2000/svg"
   xmlns:sodipodi="http://sodipodi.sourceforge.net/DTD/sodipodi-0.dtd"
   xmlns:inkscape="http://www.inkscape.org/namespaces/inkscape"
   version="1.0"
   width="300.000000pt"
   height="261.000000pt"
   viewBox="0 0 300.000000 261.000000"
   preserveAspectRatio="xMidYMid meet"
   id="svg22"
   sodipodi:docname="signal-level-2.svg"
   inkscape:version="1.0.2 (e86c8708, 2021-01-15)">
  <defs
     id="defs26" />
  <sodipodi:namedview
     pagecolor="#ffffff"
     bordercolor="#666666"
     borderopacity="1"
     objecttolerance="10"
     gridtolerance="10"
     guidetolerance="10"
     inkscape:pageopacity="0"
     inkscape:pageshadow="2"
     inkscape:window-width="996"
     inkscape:window-height="811"
     id="namedview24"
     showgrid="false"
     inkscape:zoom="1.816092"
     inkscape:cx="200"
     inkscape:cy="174"
     inkscape:window-x="0"
     inkscape:window-y="25"
     inkscape:window-maximized="0"
     inkscape:current-layer="g20" />
  <metadata
     id="metadata10">
Created by potrace 1.10, written by Peter Selinger 2001-2011
<rdf:RDF>
  <cc:Work
     rdf:about="">
    <dc:format>image/svg+xml</dc:format>
    <dc:type
       rdf:resource="http://purl.org/dc/dcmitype/StillImage" />
  </cc:Work>
</rdf:RDF>
</metadata>
  <g
     transform="translate(0.000000,261.000000) scale(0.050000,-0.050000)"
     fill="#e69138"
     stroke="none"
     id="g20">
    <path
       d="M2620 5060 c-441 -62 -1032 -306 -1273 -526 -181 -166 -435 -597 -517 -881 -115 -396 87 -1436 360 -1850 85 -129 85 -129 12 -156 -201 -76 -248 -594 -77 -848 101 -150 277 -201 448 -129 91 38 107 38 107 -2 0 -162 237 -261 385 -160 l71 48 34 -88 c88 -230 501 -156 642 115 41 80 56 72 95 -50 101 -322 457 -424 696 -200 l52 50 58 -54 c242 -228 650 -172 776 108 33 74 40 78 145 89 411 43 590 454 384 880 l-43 88 94 87 c371 342 383 1117 28 1826 -492 983 -997 1497 -1597 1623 -177 37 -699 55 -880 30z m662 -221 c620 -64 1002 -405 1534 -1369 420 -761 433 -1493 30 -1792 -140 -104 -144 -129 -52 -313 108 -219 113 -455 12 -545 -97 -87 -232 -101 -303 -32 -115 110 -206 45 -199 -142 10 -275 -345 -351 -481 -102 -113 206 -270 218 -312 24 -15 -74 -76 -107 -222 -122 -118 -12 -129 -3 -179 154 -83 258 -178 377 -279 352 -53 -13 -68 -32 -192 -227 -75 -119 -110 -147 -227 -176 -44 -11 -49 -2 -89 163 -71 291 -216 354 -280 121 -61 -224 -147 -206 -194 40 -48 251 -221 328 -260 116 -23 -119 -199 -180 -273 -94 -152 176 -59 712 108 623 33 -18 51 -14 93 17 85 63 78 125 -24 231 -274 282 -538 1253 -471 1729 34 239 324 768 493 900 436 341 1114 511 1767 444z"
       id="path12"
       style="fill:#ffff00" />
    <path
       d="M3220 3900 c-50 -50 -51 -104 -3 -147 105 -95 248 25 160 136 -48 61 -103 65 -157 11z"
       id="path14"
       style="fill:#ffff00" />
    <path
       d="M2449 3851 c-107 -107 33 -275 147 -176 63 54 70 111 23 172 -52 66 -106 67 -170 4z"
       id="path16"
       style="fill:#ffff00" />
    <path
       d="M3673 3043 c-25 -27 -33 -76 -33 -200 0 -500 -425 -670 -765 -306 -52 56 -95 115 -95 131 0 83 -128 121 -187 55 -68 -75 14 -257 181 -401 467 -403 1046 -146 1081 480 14 245 -74 361 -182 241z"
       id="path18"
       style="fill:#ffff00" />
  </g>
</svg>
