<?xml version="1.0" encoding="UTF-8" standalone="no"?>
<svg
   xmlns:dc="http://purl.org/dc/elements/1.1/"
   xmlns:cc="http://creativecommons.org/ns#"
   xmlns:rdf="http://www.w3.org/1999/02/22-rdf-syntax-ns#"
   xmlns:svg="http://www.w3.org/2000/svg"
   xmlns="http://www.w3.org/2000/svg"
   xmlns:sodipodi="http://sodipodi.sourceforge.net/DTD/sodipodi-0.dtd"
   xmlns:inkscape="http://www.inkscape.org/namespaces/inkscape"
   version="1.0"
   width="300.000000pt"
   height="271.000000pt"
   viewBox="0 0 300.000000 271.000000"
   preserveAspectRatio="xMidYMid meet"
   id="svg40"
   sodipodi:docname="signal-level-1.svg"
   inkscape:version="1.0.2 (e86c8708, 2021-01-15)">
  <defs
     id="defs44" />
  <sodipodi:namedview
     pagecolor="#ffffff"
     bordercolor="#666666"
     borderopacity="1"
     objecttolerance="10"
     gridtolerance="10"
     guidetolerance="10"
     inkscape:pageopacity="0"
     inkscape:pageshadow="2"
     inkscape:window-width="1047"
     inkscape:window-height="811"
     id="namedview42"
     showgrid="false"
     inkscape:zoom="1.7490775"
     inkscape:cx="200"
     inkscape:cy="180.66667"
     inkscape:window-x="0"
     inkscape:window-y="25"
     inkscape:window-maximized="0"
     inkscape:current-layer="svg40" />
  <metadata
     id="metadata28">
Created by potrace 1.10, written by Peter Selinger 2001-2011
<rdf:RDF>
  <cc:Work
     rdf:about="">
    <dc:format>image/svg+xml</dc:format>
    <dc:type
       rdf:resource="http://purl.org/dc/dcmitype/StillImage" />
  </cc:Work>
</rdf:RDF>
</metadata>
  <g
     transform="translate(0.000000,271.000000) scale(0.050000,-0.050000)"
     fill="#e06666"
     stroke="none"
     id="g38"
     style="fill:#ff9955">
    <path
       d="M3149 5196 c-447 -45 -1159 -402 -1510 -756 -632 -639 -833 -1115 -719 -1704 129 -668 245 -900 516 -1029 4 -2 -24 -43 -62 -93 -103 -135 -145 -313 -115 -487 102 -596 675 -875 957 -467 65 95 72 96 104 21 33 -81 240 -274 344 -321 219 -99 489 12 612 252 l37 72 78 -134 c202 -346 600 -355 741 -18 l28 66 75 -31 c158 -66 486 11 632 149 165 157 197 502 60 664 l-51 60 66 75 c192 219 347 838 298 1187 -36 252 -283 1101 -405 1388 -292 691 -1026 1172 -1686 1106z m331 -217 c442 -70 968 -523 1163 -1004 85 -207 356 -1123 377 -1273 48 -338 -98 -881 -297 -1105 -106 -119 -109 -182 -13 -297 99 -118 116 -256 49 -383 -42 -76 -374 -197 -437 -158 -11 7 -46 75 -77 151 -93 233 -226 230 -254 -6 -40 -349 -189 -505 -334 -351 -49 52 -257 414 -257 447 0 35 -81 82 -131 76 -64 -7 -70 -17 -129 -213 -140 -469 -599 -385 -698 127 -35 186 -64 230 -152 230 -72 0 -130 -69 -130 -155 0 -276 -255 -462 -441 -321 -268 204 -329 581 -127 789 97 100 108 147 48 207 -22 22 -40 57 -40 78 0 45 -45 85 -128 112 -152 49 -390 830 -368 1210 17 297 349 827 759 1211 404 378 1212 692 1617 628z"
       id="path30"
       style="fill:#ff9955" />
    <path
       d="M2565 3789 c-89 -62 -44 -189 78 -219 62 -16 137 44 137 110 0 41 -65 120 -98 120 -10 0 -31 5 -46 10 -14 6 -46 -4 -71 -21z"
       id="path32"
       style="fill:#ff9955" />
    <path
       d="M3437 3717 c-106 -38 -121 -187 -25 -250 53 -35 84 -22 183 72 116 110 4 238 -158 178z"
       id="path34"
       style="fill:#ff9955" />
    <path
       d="M3730 2786 c-44 -4 -258 -25 -475 -47 -482 -48 -627 -50 -668 -9 -88 88 -202 14 -175 -115 32 -151 191 -168 878 -93 209 23 470 45 580 48 110 4 205 7 212 8 31 5 57 106 37 144 -39 72 -131 87 -389 64z"
       id="path36"
       style="fill:#ff9955" />
  </g>
</svg>
